<?xml version="1.0" encoding="UTF-8" standalone="no"?>
<!DOCTYPE svg PUBLIC "-//W3C//DTD SVG 1.1//EN"
 "http://www.w3.org/Graphics/SVG/1.1/DTD/svg11.dtd">
<!-- Generated by graphviz version 2.40.1 (20161225.0304)
 -->
<!-- Title: academic_neural_net Pages: 1 -->
<svg width="720pt" height="193pt"
 viewBox="0.00 0.00 720.00 193.19" xmlns="http://www.w3.org/2000/svg" xmlns:xlink="http://www.w3.org/1999/xlink">
<g id="graph0" class="graph" transform="scale(.9113 .9113) rotate(0) translate(4 208)">
<title>academic_neural_net</title>
<polygon fill="#ffffff" stroke="transparent" points="-4,4 -4,-208 786.1024,-208 786.1024,4 -4,4"/>
<!-- birth -->
<g id="node1" class="node">
<title>birth</title>
<ellipse fill="none" stroke="#000000" cx="37.0119" cy="-18" rx="29.0529" ry="18"/>
<text text-anchor="middle" x="37.0119" y="-13.8" font-family="Times,serif" font-size="14.00" fill="#000000">birth</text>
</g>
<!-- childhood -->
<g id="node2" class="node">
<title>childhood</title>
<ellipse fill="none" stroke="#000000" cx="169.7917" cy="-139" rx="49.8233" ry="18"/>
<text text-anchor="middle" x="169.7917" y="-134.8" font-family="Times,serif" font-size="14.00" fill="#000000">childhood</text>
</g>
<!-- birth&#45;&gt;childhood -->
<g id="edge1" class="edge">
<title>birth&#45;&gt;childhood</title>
<path fill="none" stroke="#000000" d="M56.6288,-31.4962C62.3677,-35.6599 68.5633,-40.3712 74.0237,-45 100.2236,-67.21 128.0088,-95.0145 146.8639,-114.6036"/>
<polygon fill="#000000" stroke="#000000" points="144.4356,-117.1285 153.876,-121.938 149.4954,-112.2912 144.4356,-117.1285"/>
<text text-anchor="middle" x="97.077" y="-74.2" font-family="Times,serif" font-size="14.00" fill="#000000">O</text>
</g>
<!-- weird_shit -->
<g id="node3" class="node">
<title>weird_shit</title>
<polygon fill="none" stroke="#000000" points="771.3164,-146 702.1198,-146 702.1198,-110 777.3164,-110 777.3164,-140 771.3164,-146"/>
<polyline fill="none" stroke="#000000" points="771.3164,-146 771.3164,-140 "/>
<polyline fill="none" stroke="#000000" points="777.3164,-140 771.3164,-140 "/>
<text text-anchor="middle" x="739.7181" y="-123.8" font-family="Times,serif" font-size="14.00" fill="#000000">weird_shit</text>
</g>
<!-- birth&#45;&gt;weird_shit -->
<g id="edge2" class="edge">
<title>birth&#45;&gt;weird_shit</title>
<path fill="none" stroke="#000000" d="M65.127,-12.6277C91.9222,-7.9796 133.4542,-2 169.7917,-2 169.7917,-2 169.7917,-2 615.5076,-2 670.4923,-2 709.3127,-63.605 727.6904,-100.6623"/>
<polygon fill="#000000" stroke="#000000" points="724.6567,-102.4317 732.1245,-109.9473 730.9734,-99.4151 724.6567,-102.4317"/>
</g>
<!-- childhood&#45;&gt;weird_shit -->
<g id="edge4" class="edge">
<title>childhood&#45;&gt;weird_shit</title>
<path fill="none" stroke="#000000" d="M192.4401,-155.4022C221.3146,-174.658 273.4781,-204 323.2412,-204 323.2412,-204 323.2412,-204 615.5076,-204 655.2556,-204 693.032,-175.3328 716.2657,-153.2112"/>
<polygon fill="#000000" stroke="#000000" points="718.9052,-155.5239 723.5693,-146.0109 713.9908,-150.5391 718.9052,-155.5239"/>
</g>
<!-- adolescence -->
<g id="node4" class="node">
<title>adolescence</title>
<ellipse fill="none" stroke="#000000" cx="323.2412" cy="-139" rx="57.8635" ry="18"/>
<text text-anchor="middle" x="323.2412" y="-134.8" font-family="Times,serif" font-size="14.00" fill="#000000">adolescence</text>
</g>
<!-- childhood&#45;&gt;adolescence -->
<g id="edge3" class="edge">
<title>childhood&#45;&gt;adolescence</title>
<path fill="none" stroke="#000000" d="M219.6123,-139C231.0299,-139 243.3577,-139 255.3903,-139"/>
<polygon fill="#000000" stroke="#000000" points="255.4019,-142.5001 265.4019,-139 255.4019,-135.5001 255.4019,-142.5001"/>
<text text-anchor="middle" x="242.5064" y="-143.2" font-family="Times,serif" font-size="14.00" fill="#000000">H</text>
</g>
<!-- weird_shit&#45;&gt;weird_shit -->
<g id="edge11" class="edge">
<title>weird_shit&#45;&gt;weird_shit</title>
<path fill="none" stroke="#000000" d="M729.5872,-146.1527C728.0287,-155.5391 731.4056,-164 739.7181,-164 744.7835,-164 748.0162,-160.8581 749.4161,-156.2796"/>
<polygon fill="#000000" stroke="#000000" points="752.9187,-156.2931 749.849,-146.1527 745.925,-155.9941 752.9187,-156.2931"/>
<text text-anchor="middle" x="739.7181" y="-168.2" font-family="Times,serif" font-size="14.00" fill="#000000">this mortal coil</text>
</g>
<!-- adolescence&#45;&gt;weird_shit -->
<g id="edge6" class="edge">
<title>adolescence&#45;&gt;weird_shit</title>
<path fill="none" stroke="#000000" d="M375.2632,-146.7872C383.1728,-147.7062 391.2523,-148.4954 398.9226,-149 400.4748,-149.1021 400.8671,-149.0133 402.4226,-149 527.7026,-147.9322 559.9039,-155.9493 684.169,-140 686.6951,-139.6758 689.2764,-139.295 691.8763,-138.8722"/>
<polygon fill="#000000" stroke="#000000" points="692.696,-142.281 701.918,-137.0651 691.4562,-135.3917 692.696,-142.281"/>
</g>
<!-- university -->
<g id="node5" class="node">
<title>university</title>
<ellipse fill="none" stroke="#000000" cx="470.0811" cy="-120" rx="49.8175" ry="18"/>
<text text-anchor="middle" x="470.0811" y="-115.8" font-family="Times,serif" font-size="14.00" fill="#000000">university</text>
</g>
<!-- adolescence&#45;&gt;university -->
<g id="edge5" class="edge">
<title>adolescence&#45;&gt;university</title>
<path fill="none" stroke="#000000" d="M376.6691,-132.0868C388.5851,-130.545 401.2616,-128.9047 413.3071,-127.3461"/>
<polygon fill="#000000" stroke="#000000" points="413.7782,-130.8145 423.2463,-126.0601 412.8798,-123.8723 413.7782,-130.8145"/>
<text text-anchor="middle" x="400.6726" y="-132.2" font-family="Times,serif" font-size="14.00" fill="#000000"> </text>
</g>
<!-- university&#45;&gt;weird_shit -->
<g id="edge8" class="edge">
<title>university&#45;&gt;weird_shit</title>
<path fill="none" stroke="#000000" d="M519.8509,-121.4766C568.902,-122.932 643.3398,-125.1405 691.7554,-126.577"/>
<polygon fill="#000000" stroke="#000000" points="691.8729,-130.0819 701.9723,-126.8801 692.0805,-123.085 691.8729,-130.0819"/>
</g>
<!-- adulthood -->
<g id="node6" class="node">
<title>adulthood</title>
<ellipse fill="none" stroke="#000000" cx="615.5076" cy="-48" rx="49.8233" ry="18"/>
<text text-anchor="middle" x="615.5076" y="-43.8" font-family="Times,serif" font-size="14.00" fill="#000000">adulthood</text>
</g>
<!-- university&#45;&gt;adulthood -->
<g id="edge7" class="edge">
<title>university&#45;&gt;adulthood</title>
<path fill="none" stroke="#000000" d="M499.5104,-105.4297C521.7845,-94.4019 552.5785,-79.1559 576.8407,-67.1438"/>
<polygon fill="#000000" stroke="#000000" points="578.7133,-70.1222 586.1222,-62.5486 575.6074,-63.849 578.7133,-70.1222"/>
<text text-anchor="middle" x="542.7929" y="-91.2" font-family="Times,serif" font-size="14.00" fill="#000000">N</text>
</g>
<!-- adulthood&#45;&gt;weird_shit -->
<g id="edge10" class="edge">
<title>adulthood&#45;&gt;weird_shit</title>
<path fill="none" stroke="#000000" d="M640.0476,-63.8054C658.1116,-75.4399 682.9673,-91.4486 703.3378,-104.5686"/>
<polygon fill="#000000" stroke="#000000" points="701.4583,-107.5212 711.7606,-109.9935 705.2486,-101.6361 701.4583,-107.5212"/>
</g>
<!-- adulthood&#45;&gt;adulthood -->
<g id="edge9" class="edge">
<title>adulthood&#45;&gt;adulthood</title>
<path fill="none" stroke="#000000" d="M603.2837,-65.7817C601.2064,-75.3149 605.2811,-84 615.5076,-84 621.7394,-84 625.6868,-80.7749 627.3497,-76.0981"/>
<polygon fill="#000000" stroke="#000000" points="630.8592,-75.9044 627.7316,-65.7817 623.864,-75.6454 630.8592,-75.9044"/>
<text text-anchor="middle" x="615.5076" y="-88.2" font-family="Times,serif" font-size="14.00" fill="#000000">O</text>
</g>
<!-- peace -->
<g id="node7" class="node">
<title>peace</title>
<ellipse fill="none" stroke="#000000" cx="37.0119" cy="-91" rx="33.0224" ry="33.0224"/>
<ellipse fill="none" stroke="#000000" cx="37.0119" cy="-91" rx="37.0237" ry="37.0237"/>
<text text-anchor="middle" x="37.0119" y="-86.8" font-family="Times,serif" font-size="14.00" fill="#000000">peace</text>
</g>
</g>
</svg>
