<?xml version="1.0" encoding="UTF-8" standalone="no"?>
<!DOCTYPE svg PUBLIC "-//W3C//DTD SVG 1.1//EN"
 "http://www.w3.org/Graphics/SVG/1.1/DTD/svg11.dtd">
<!-- Generated by graphviz version 2.40.1 (20161225.0304)
 -->
<!-- Title: academic_neural_net Pages: 1 -->
<svg width="720pt" height="293pt"
 viewBox="0.00 0.00 720.00 292.84" xmlns="http://www.w3.org/2000/svg" xmlns:xlink="http://www.w3.org/1999/xlink">
<g id="graph0" class="graph" transform="scale(.3824 .3824) rotate(0) translate(4 761.79)">
<title>academic_neural_net</title>
<polygon fill="#ffffff" stroke="transparent" points="-4,4 -4,-761.79 1878.8189,-761.79 1878.8189,4 -4,4"/>
<!-- Sam -->
<g id="node1" class="node">
<title>Sam</title>
<ellipse fill="none" stroke="#000000" cx="28.2037" cy="-445.99" rx="28.4088" ry="28.4088"/>
<text text-anchor="middle" x="28.2037" y="-441.79" font-family="Times,serif" font-size="14.00" fill="#000000">Sam</text>
</g>
<!-- Jack -->
<g id="node2" class="node">
<title>Jack</title>
<polygon fill="none" stroke="#000000" points="423.9383,-458.3965 381.5693,-458.3965 368.4765,-498.5445 355.3838,-458.3965 313.0147,-458.3965 347.292,-433.5836 334.1993,-393.4355 368.4765,-418.2484 402.7538,-393.4355 389.661,-433.5836 423.9383,-458.3965"/>
<text text-anchor="middle" x="368.4765" y="-441.79" font-family="Times,serif" font-size="14.00" fill="#000000">Jack</text>
</g>
<!-- Sam&#45;&gt;Jack -->
<g id="edge1" class="edge">
<title>Sam&#45;&gt;Jack</title>
<path fill="none" stroke="#000000" d="M56.6299,-445.99C114.7861,-445.99 247.9287,-445.99 319.9997,-445.99"/>
<polygon fill="#000000" stroke="#000000" points="320.1739,-449.4901 330.1738,-445.99 320.1738,-442.4901 320.1739,-449.4901"/>
<text text-anchor="middle" x="184.8267" y="-450.19" font-family="Times,serif" font-size="14.00" fill="#000000">i could kill god for this</text>
</g>
<!-- Jack&#45;&gt;Sam -->
<g id="edge11" class="edge">
<title>Jack&#45;&gt;Sam</title>
<path fill="none" stroke="#000000" d="M342.7545,-436.7966C328.8812,-432.3216 311.347,-427.4323 295.2461,-425.19 198.0337,-411.6519 170.3708,-404.5854 74.4073,-425.19 70.5504,-426.0182 66.627,-427.1944 62.7787,-428.5714"/>
<polygon fill="#000000" stroke="#000000" points="61.4201,-425.3453 53.4482,-432.3238 64.032,-431.8397 61.4201,-425.3453"/>
<text text-anchor="middle" x="184.8267" y="-430.19" font-family="Times,serif" font-size="14.00" fill="#000000">love 2 include u in all the friend groups</text>
</g>
<!-- Agathe -->
<g id="node3" class="node">
<title>Agathe</title>
<ellipse fill="none" stroke="#000000" cx="1233.2104" cy="-710.99" rx="38.844" ry="38.844"/>
<text text-anchor="middle" x="1233.2104" y="-706.79" font-family="Times,serif" font-size="14.00" fill="#000000">Agathe</text>
</g>
<!-- Jack&#45;&gt;Agathe -->
<g id="edge12" class="edge">
<title>Jack&#45;&gt;Agathe</title>
<path fill="none" stroke="#000000" d="M374.1547,-481.7127C384.6124,-542.4876 408.8861,-661.8808 441.7069,-686.99 558.1824,-776.0984 1030.2491,-733.3516 1184.3177,-716.634"/>
<polygon fill="#000000" stroke="#000000" points="1184.8675,-720.0948 1194.426,-715.5248 1184.1039,-713.1366 1184.8675,-720.0948"/>
<text text-anchor="middle" x="736.9921" y="-745.19" font-family="Times,serif" font-size="14.00" fill="#000000">so there i was, knuckle&#45;deep in Gödel, Escher, and also Bach, when all of a sudden...</text>
</g>
<!-- Detlef -->
<g id="node4" class="node">
<title>Detlef</title>
<ellipse fill="none" stroke="#000000" cx="1233.2104" cy="-618.99" rx="35.3276" ry="35.3276"/>
<text text-anchor="middle" x="1233.2104" y="-614.79" font-family="Times,serif" font-size="14.00" fill="#000000">Detlef</text>
</g>
<!-- Jack&#45;&gt;Detlef -->
<g id="edge13" class="edge">
<title>Jack&#45;&gt;Detlef</title>
<path fill="none" stroke="#000000" d="M373.9603,-482.0469C381.8018,-519.68 400.1747,-576.9058 441.7069,-603.99 473.0551,-624.4329 1024.1863,-620.9459 1187.787,-619.4522"/>
<polygon fill="#000000" stroke="#000000" points="1188.0262,-622.9502 1197.9931,-619.3569 1187.9608,-615.9505 1188.0262,-622.9502"/>
<text text-anchor="middle" x="736.9921" y="-624.19" font-family="Times,serif" font-size="14.00" fill="#000000">i can no longer bear to suck this gp2</text>
</g>
<!-- Pooh -->
<g id="node5" class="node">
<title>Pooh</title>
<ellipse fill="none" stroke="#000000" cx="1233.2104" cy="-534.99" rx="30.7808" ry="30.7808"/>
<text text-anchor="middle" x="1233.2104" y="-530.79" font-family="Times,serif" font-size="14.00" fill="#000000">Pooh</text>
</g>
<!-- Jack&#45;&gt;Pooh -->
<g id="edge14" class="edge">
<title>Jack&#45;&gt;Pooh</title>
<path fill="none" stroke="#000000" d="M379.71,-464.9046C392.1632,-483.8368 414.1754,-511.8464 441.7069,-523.99 510.3937,-554.2864 1038.4593,-540.8783 1191.6685,-536.3009"/>
<polygon fill="#000000" stroke="#000000" points="1192.1506,-539.788 1202.0403,-535.9873 1191.939,-532.7912 1192.1506,-539.788"/>
<text text-anchor="middle" x="736.9921" y="-547.19" font-family="Times,serif" font-size="14.00" fill="#000000">such precious. much floof. abso &#45; FUUUUUUUUUCK</text>
</g>
<!-- Tom -->
<g id="node6" class="node">
<title>Tom</title>
<ellipse fill="none" stroke="#000000" cx="1233.2104" cy="-456.99" rx="29.0548" ry="29.0548"/>
<text text-anchor="middle" x="1233.2104" y="-452.79" font-family="Times,serif" font-size="14.00" fill="#000000">Tom</text>
</g>
<!-- Jack&#45;&gt;Tom -->
<g id="edge15" class="edge">
<title>Jack&#45;&gt;Tom</title>
<path fill="none" stroke="#000000" d="M407.5954,-446.4876C551.2957,-448.3156 1049.1483,-454.6486 1193.6202,-456.4864"/>
<polygon fill="#000000" stroke="#000000" points="1193.7477,-459.9882 1203.7915,-456.6158 1193.8368,-452.9888 1193.7477,-459.9882"/>
<text text-anchor="middle" x="736.9921" y="-459.19" font-family="Times,serif" font-size="14.00" fill="#000000">thank u 4 being normal despite doing the same degree</text>
</g>
<!-- unintelligible_screams_0xdeadb00b -->
<g id="node7" class="node">
<title>unintelligible_screams_0xdeadb00b</title>
<ellipse fill="none" stroke="#000000" cx="1724.3245" cy="-420.99" rx="150.4888" ry="150.4888"/>
<text text-anchor="middle" x="1724.3245" y="-416.79" font-family="Times,serif" font-size="14.00" fill="#000000">unintelligible_screams_0xdeadb00b</text>
</g>
<!-- Jack&#45;&gt;unintelligible_screams_0xdeadb00b -->
<g id="edge18" class="edge">
<title>Jack&#45;&gt;unintelligible_screams_0xdeadb00b</title>
<path fill="none" stroke="#000000" d="M390.7232,-430.4965C404.6705,-421.7368 423.4177,-411.6332 441.7069,-406.99 651.5928,-353.7051 1199.6999,-395.5943 1416.1435,-402.19 1464.163,-403.6533 1516.3327,-406.3963 1563.861,-409.3436"/>
<polygon fill="#000000" stroke="#000000" points="1563.7299,-412.8422 1573.9294,-409.9753 1564.1682,-405.8559 1563.7299,-412.8422"/>
<text text-anchor="middle" x="1233.2104" y="-407.19" font-family="Times,serif" font-size="14.00" fill="#000000">oh god fuck why are you like this and when will you stop</text>
</g>
<!-- Graham_unfortunately -->
<g id="node8" class="node">
<title>Graham_unfortunately</title>
<ellipse fill="none" stroke="#000000" cx="1233.2104" cy="-98.99" rx="98.9801" ry="98.9801"/>
<text text-anchor="middle" x="1233.2104" y="-94.79" font-family="Times,serif" font-size="14.00" fill="#000000">Graham_unfortunately</text>
</g>
<!-- Jack&#45;&gt;Graham_unfortunately -->
<g id="edge16" class="edge">
<title>Jack&#45;&gt;Graham_unfortunately</title>
<path fill="none" stroke="#000000" d="M370.4654,-416.6553C376.1243,-343.0072 395.0241,-153.4608 441.7069,-115.19 638.2809,45.9621 963.9193,-17.2718 1129.5516,-64.7925"/>
<polygon fill="#000000" stroke="#000000" points="1128.6778,-68.1832 1139.2572,-67.6117 1130.6305,-61.4611 1128.6778,-68.1832"/>
<text text-anchor="middle" x="736.9921" y="-120.19" font-family="Times,serif" font-size="14.00" fill="#000000">an evening of graph lectures! what could possibly go wrong?!</text>
</g>
<!-- Graham_again_somehow -->
<g id="node9" class="node">
<title>Graham_again_somehow</title>
<ellipse fill="none" stroke="#000000" cx="1724.3245" cy="-142.99" rx="109.9382" ry="109.9382"/>
<text text-anchor="middle" x="1724.3245" y="-138.79" font-family="Times,serif" font-size="14.00" fill="#000000">Graham_again_somehow</text>
</g>
<!-- Jack&#45;&gt;Graham_again_somehow -->
<g id="edge17" class="edge">
<title>Jack&#45;&gt;Graham_again_somehow</title>
<path fill="none" stroke="#000000" d="M380.0757,-409.7579C391.1506,-381.5559 410.7965,-344.1002 441.7069,-324.99 534.1011,-267.868 1309.1438,-264.7158 1416.1435,-245.99 1483.2569,-234.2447 1555.639,-210.6562 1613.3804,-189.0137"/>
<polygon fill="#000000" stroke="#000000" points="1614.7688,-192.2306 1622.8842,-185.4196 1612.2927,-185.6831 1614.7688,-192.2306"/>
<text text-anchor="middle" x="1233.2104" y="-270.19" font-family="Times,serif" font-size="14.00" fill="#000000">...i deserve this. i chose this.</text>
</g>
<!-- Agathe&#45;&gt;Jack -->
<g id="edge2" class="edge">
<title>Agathe&#45;&gt;Jack</title>
<path fill="none" stroke="#000000" d="M1195.3467,-701.5209C1155.1628,-691.8917 1089.6707,-677.394 1032.2773,-670.19 967.0898,-662.0077 494.7751,-679.7217 441.7069,-640.99 416.1708,-622.3525 391.3566,-538.2123 378.19,-486.7377"/>
<polygon fill="#000000" stroke="#000000" points="381.5507,-485.7503 375.7152,-476.9074 374.7626,-487.4593 381.5507,-485.7503"/>
<text text-anchor="middle" x="736.9921" y="-674.19" font-family="Times,serif" font-size="14.00" fill="#000000">is someone cutting octonions? ah non, c’est rien, je suis juste en train de pleurer.</text>
</g>
<!-- Detlef&#45;&gt;Jack -->
<g id="edge3" class="edge">
<title>Detlef&#45;&gt;Jack</title>
<path fill="none" stroke="#000000" d="M1198.523,-612.2269C1158.5984,-604.7398 1090.9754,-592.9676 1032.2773,-587.19 966.9236,-580.7574 498.456,-597.036 441.7069,-563.99 411.1408,-546.1908 391.5585,-510.0408 380.409,-482.4174"/>
<polygon fill="#000000" stroke="#000000" points="383.6633,-481.1284 376.8128,-473.0463 377.128,-483.6364 383.6633,-481.1284"/>
<text text-anchor="middle" x="736.9921" y="-591.19" font-family="Times,serif" font-size="14.00" fill="#000000">it&#39;s nice that you&#39;re indulging in some extracurricular activities but I DO have a gp2 to finish you know...</text>
</g>
<!-- Pooh&#45;&gt;Jack -->
<g id="edge4" class="edge">
<title>Pooh&#45;&gt;Jack</title>
<path fill="none" stroke="#000000" d="M1202.6675,-529.9431C1163.3667,-523.6383 1092.9264,-512.9771 1032.2773,-507.19 770.624,-482.2232 698.1678,-533.5541 441.7069,-475.99 428.3789,-472.9985 414.3579,-467.8057 402.1925,-462.5727"/>
<polygon fill="#000000" stroke="#000000" points="403.4402,-459.2966 392.8826,-458.4086 400.582,-465.6866 403.4402,-459.2966"/>
<text text-anchor="middle" x="736.9921" y="-511.19" font-family="Times,serif" font-size="14.00" fill="#000000">&lt;immediately claws out eyeballs&gt;</text>
</g>
<!-- Tom&#45;&gt;Jack -->
<g id="edge6" class="edge">
<title>Tom&#45;&gt;Jack</title>
<path fill="none" stroke="#000000" d="M1204.4104,-451.3536C1165.5293,-444.0582 1094.0011,-431.7422 1032.2773,-427.19 770.5125,-407.8847 702.1135,-394.2971 441.7069,-427.19 429.5198,-428.7294 416.4565,-431.6558 404.7864,-434.7493"/>
<polygon fill="#000000" stroke="#000000" points="403.6463,-431.4333 394.9466,-437.4802 405.5184,-438.1784 403.6463,-431.4333"/>
<text text-anchor="middle" x="736.9921" y="-432.19" font-family="Times,serif" font-size="14.00" fill="#000000">I deserve better than this. I could have paired up with anyone else for ICAR.</text>
</g>
<!-- Tom&#45;&gt;unintelligible_screams_0xdeadb00b -->
<g id="edge5" class="edge">
<title>Tom&#45;&gt;unintelligible_screams_0xdeadb00b</title>
<path fill="none" stroke="#000000" d="M1262.4611,-454.8459C1320.7333,-450.5744 1455.0719,-440.727 1563.927,-432.7476"/>
<polygon fill="#000000" stroke="#000000" points="1564.327,-436.2278 1574.0443,-432.006 1563.8152,-429.2465 1564.327,-436.2278"/>
<text text-anchor="middle" x="1494.9868" y="-447.19" font-family="Times,serif" font-size="14.00" fill="#000000">...actually never mind</text>
</g>
<!-- unintelligible_screams_0xdeadb00b&#45;&gt;Jack -->
<g id="edge10" class="edge">
<title>unintelligible_screams_0xdeadb00b&#45;&gt;Jack</title>
<path fill="none" stroke="#000000" d="M1578.9053,-381.6207C1527.8651,-369.9013 1469.8605,-358.9215 1416.1435,-354.19 1200.3674,-335.1842 641.9818,-296.4639 441.7069,-378.99 427.9853,-384.6442 415.2079,-394.0772 404.2924,-404.1065"/>
<polygon fill="#000000" stroke="#000000" points="401.8064,-401.6416 397.0443,-411.1059 406.669,-406.677 401.8064,-401.6416"/>
<text text-anchor="middle" x="1233.2104" y="-359.19" font-family="Times,serif" font-size="14.00" fill="#000000">never, son</text>
</g>
<!-- Graham_unfortunately&#45;&gt;Jack -->
<g id="edge8" class="edge">
<title>Graham_unfortunately&#45;&gt;Jack</title>
<path fill="none" stroke="#000000" d="M1136.0893,-118.2673C1103.2082,-124.4219 1066.2216,-130.9396 1032.2773,-135.99 901.6307,-155.4282 543.1058,-118.5457 441.7069,-203.19 410.7302,-229.0483 386.5702,-342.3503 375.3457,-404.6203"/>
<polygon fill="#000000" stroke="#000000" points="371.8897,-404.0645 373.5924,-414.5216 378.7825,-405.2851 371.8897,-404.0645"/>
<text text-anchor="middle" x="736.9921" y="-208.19" font-family="Times,serif" font-size="14.00" fill="#000000">gbkshakegooseshitemotherfukerdropkickbooooooitaxevasiongraphgrammar</text>
</g>
<!-- Graham_unfortunately&#45;&gt;Graham_again_somehow -->
<g id="edge7" class="edge">
<title>Graham_unfortunately&#45;&gt;Graham_again_somehow</title>
<path fill="none" stroke="#000000" d="M1332.0039,-107.8412C1410.734,-114.8948 1521.2569,-124.7968 1604.9388,-132.294"/>
<polygon fill="#000000" stroke="#000000" points="1604.7345,-135.7896 1615.007,-133.196 1605.3592,-128.8176 1604.7345,-135.7896"/>
<text text-anchor="middle" x="1494.9868" y="-132.19" font-family="Times,serif" font-size="14.00" fill="#000000">mmmm, mirchiz...</text>
</g>
<!-- Graham_again_somehow&#45;&gt;Jack -->
<g id="edge9" class="edge">
<title>Graham_again_somehow&#45;&gt;Jack</title>
<path fill="none" stroke="#000000" d="M1617.6255,-168.9098C1558.5795,-182.3016 1483.6822,-197.7344 1416.1435,-206.99 1362.3866,-214.357 485.899,-241.5077 441.7069,-272.99 398.6078,-303.6937 380.7244,-364.9702 373.4062,-405.7328"/>
<polygon fill="#000000" stroke="#000000" points="369.9493,-405.1849 371.7644,-415.6231 376.8548,-406.3313 369.9493,-405.1849"/>
<text text-anchor="middle" x="1233.2104" y="-229.19" font-family="Times,serif" font-size="14.00" fill="#000000">pls turn to page 9928424 of my invoice for your share of the bills</text>
</g>
</g>
</svg>
