<?xml version="1.0" encoding="UTF-8" standalone="no"?>
<!DOCTYPE svg PUBLIC "-//W3C//DTD SVG 1.1//EN"
 "http://www.w3.org/Graphics/SVG/1.1/DTD/svg11.dtd">
<!-- Generated by graphviz version 2.40.1 (20161225.0304)
 -->
<!-- Title: academic_neural_net Pages: 1 -->
<svg width="720pt" height="228pt"
 viewBox="0.00 0.00 720.00 227.98" xmlns="http://www.w3.org/2000/svg" xmlns:xlink="http://www.w3.org/1999/xlink">
<g id="graph0" class="graph" transform="scale(.2634 .2634) rotate(0) translate(4 861.4127)">
<title>academic_neural_net</title>
<polygon fill="#ffffff" stroke="transparent" points="-4,4 -4,-861.4127 2729.1545,-861.4127 2729.1545,4 -4,4"/>
<!-- Sam -->
<g id="node1" class="node">
<title>Sam</title>
<ellipse fill="none" stroke="#000000" cx="28.2037" cy="-500.6127" rx="28.4088" ry="28.4088"/>
<text text-anchor="middle" x="28.2037" y="-496.4127" font-family="Times,serif" font-size="14.00" fill="#000000">Sam</text>
</g>
<!-- Jack -->
<g id="node2" class="node">
<title>Jack</title>
<polygon fill="none" stroke="#000000" points="574.0043,-513.0191 531.6353,-513.0191 518.5425,-553.1672 505.4498,-513.0191 463.0807,-513.0191 497.358,-488.2062 484.2653,-448.0582 518.5425,-472.871 552.8198,-448.0582 539.727,-488.2062 574.0043,-513.0191"/>
<text text-anchor="middle" x="518.5425" y="-496.4127" font-family="Times,serif" font-size="14.00" fill="#000000">Jack</text>
</g>
<!-- Sam&#45;&gt;Jack -->
<g id="edge1" class="edge">
<title>Sam&#45;&gt;Jack</title>
<path fill="none" stroke="#000000" d="M56.6858,-500.6127C137.4261,-500.6127 368.5003,-500.6127 469.8753,-500.6127"/>
<polygon fill="#000000" stroke="#000000" points="470.1383,-504.1128 480.1383,-500.6127 470.1383,-497.1128 470.1383,-504.1128"/>
<text text-anchor="middle" x="259.8597" y="-504.8127" font-family="Times,serif" font-size="14.00" fill="#000000">you wouldn&#39;t get this self help book because you&#39;re not gay. sorry</text>
</g>
<!-- Jack&#45;&gt;Sam -->
<g id="edge2" class="edge">
<title>Jack&#45;&gt;Sam</title>
<path fill="none" stroke="#000000" d="M492.8205,-491.4193C478.9472,-486.9442 461.413,-482.0549 445.3121,-479.8127 282.0412,-457.0751 235.5806,-445.2066 74.4073,-479.8127 70.5504,-480.6408 66.627,-481.8171 62.7787,-483.1941"/>
<polygon fill="#000000" stroke="#000000" points="61.4201,-479.9679 53.4482,-486.9465 64.032,-486.4624 61.4201,-479.9679"/>
<text text-anchor="middle" x="259.8597" y="-484.8127" font-family="Times,serif" font-size="14.00" fill="#000000">love 2 include u in all the friend groups</text>
</g>
<!-- Agathe -->
<g id="node3" class="node">
<title>Agathe</title>
<ellipse fill="none" stroke="#000000" cx="1361.3146" cy="-765.6127" rx="38.844" ry="38.844"/>
<text text-anchor="middle" x="1361.3146" y="-761.4127" font-family="Times,serif" font-size="14.00" fill="#000000">Agathe</text>
</g>
<!-- Jack&#45;&gt;Agathe -->
<g id="edge3" class="edge">
<title>Jack&#45;&gt;Agathe</title>
<path fill="none" stroke="#000000" d="M524.2229,-536.3324C534.684,-597.1029 558.9629,-716.4892 591.7729,-741.6127 813.1169,-911.1013 1184.5858,-820.3511 1314.6438,-780.9025"/>
<polygon fill="#000000" stroke="#000000" points="1315.781,-784.2146 1324.3102,-777.9293 1313.7231,-777.5239 1315.781,-784.2146"/>
<text text-anchor="middle" x="887.0581" y="-844.8127" font-family="Times,serif" font-size="14.00" fill="#000000">so there i was, knuckle&#45;deep in Gödel, Escher, and also Bach, when all of a sudden...</text>
</g>
<!-- Detlef -->
<g id="node4" class="node">
<title>Detlef</title>
<ellipse fill="none" stroke="#000000" cx="1361.3146" cy="-673.6127" rx="35.3276" ry="35.3276"/>
<text text-anchor="middle" x="1361.3146" y="-669.4127" font-family="Times,serif" font-size="14.00" fill="#000000">Detlef</text>
</g>
<!-- Jack&#45;&gt;Detlef -->
<g id="edge4" class="edge">
<title>Jack&#45;&gt;Detlef</title>
<path fill="none" stroke="#000000" d="M524.0291,-536.6652C531.8731,-574.2946 550.248,-631.5172 591.7729,-658.6127 622.1607,-678.441 1155.0841,-675.4191 1315.8027,-674.0491"/>
<polygon fill="#000000" stroke="#000000" points="1315.8723,-677.5487 1325.8414,-673.9615 1315.8112,-670.549 1315.8723,-677.5487"/>
<text text-anchor="middle" x="887.0581" y="-678.8127" font-family="Times,serif" font-size="14.00" fill="#000000">i can no longer bear to suck this gp2</text>
</g>
<!-- Pooh -->
<g id="node5" class="node">
<title>Pooh</title>
<ellipse fill="none" stroke="#000000" cx="1361.3146" cy="-589.6127" rx="30.7808" ry="30.7808"/>
<text text-anchor="middle" x="1361.3146" y="-585.4127" font-family="Times,serif" font-size="14.00" fill="#000000">Pooh</text>
</g>
<!-- Jack&#45;&gt;Pooh -->
<g id="edge5" class="edge">
<title>Jack&#45;&gt;Pooh</title>
<path fill="none" stroke="#000000" d="M529.777,-519.525C542.231,-538.4555 564.2438,-566.4636 591.7729,-578.6127 658.3991,-608.016 1169.6733,-595.3158 1319.9209,-590.8999"/>
<polygon fill="#000000" stroke="#000000" points="1320.2123,-594.3929 1330.1038,-590.597 1320.0041,-587.396 1320.2123,-594.3929"/>
<text text-anchor="middle" x="887.0581" y="-601.8127" font-family="Times,serif" font-size="14.00" fill="#000000">such precious. much floof. abso &#45; FUUUUUUUUUCK</text>
</g>
<!-- Tom -->
<g id="node6" class="node">
<title>Tom</title>
<ellipse fill="none" stroke="#000000" cx="1361.3146" cy="-511.6127" rx="29.0548" ry="29.0548"/>
<text text-anchor="middle" x="1361.3146" y="-507.4127" font-family="Times,serif" font-size="14.00" fill="#000000">Tom</text>
</g>
<!-- Jack&#45;&gt;Tom -->
<g id="edge6" class="edge">
<title>Jack&#45;&gt;Tom</title>
<path fill="none" stroke="#000000" d="M557.5009,-501.1212C698.2167,-502.9578 1179.361,-509.2378 1321.48,-511.0928"/>
<polygon fill="#000000" stroke="#000000" points="1321.8403,-514.5977 1331.8852,-511.2286 1321.9318,-507.5983 1321.8403,-514.5977"/>
<text text-anchor="middle" x="887.0581" y="-513.8127" font-family="Times,serif" font-size="14.00" fill="#000000">thank u 4 being normal despite doing the same degree</text>
</g>
<!-- unintelligible_screams_0xdeadb00b -->
<g id="node7" class="node">
<title>unintelligible_screams_0xdeadb00b</title>
<ellipse fill="none" stroke="#000000" cx="2074.6465" cy="-425.6127" rx="150.4888" ry="150.4888"/>
<text text-anchor="middle" x="2074.6465" y="-421.4127" font-family="Times,serif" font-size="14.00" fill="#000000">unintelligible_screams_0xdeadb00b</text>
</g>
<!-- Jack&#45;&gt;unintelligible_screams_0xdeadb00b -->
<g id="edge7" class="edge">
<title>Jack&#45;&gt;unintelligible_screams_0xdeadb00b</title>
<path fill="none" stroke="#000000" d="M540.8169,-485.2262C554.7742,-476.5056 573.5223,-466.4056 591.7729,-461.6127 716.6658,-428.8139 1556.1133,-425.3113 1913.766,-425.3321"/>
<polygon fill="#000000" stroke="#000000" points="1913.9452,-428.832 1923.9458,-425.3336 1913.9463,-421.832 1913.9452,-428.832"/>
<text text-anchor="middle" x="1361.3146" y="-434.8127" font-family="Times,serif" font-size="14.00" fill="#000000">oh god fuck why are you like this and when will you stop</text>
</g>
<!-- Graham_unfortunately -->
<g id="node8" class="node">
<title>Graham_unfortunately</title>
<ellipse fill="none" stroke="#000000" cx="1361.3146" cy="-259.6127" rx="98.9801" ry="98.9801"/>
<text text-anchor="middle" x="1361.3146" y="-255.4127" font-family="Times,serif" font-size="14.00" fill="#000000">Graham_unfortunately</text>
</g>
<!-- Jack&#45;&gt;Graham_unfortunately -->
<g id="edge8" class="edge">
<title>Jack&#45;&gt;Graham_unfortunately</title>
<path fill="none" stroke="#000000" d="M526.6819,-466.854C539.4542,-416.9275 565.4727,-327.1979 591.7729,-307.8127 788.0871,-163.1145 1094.7271,-199.9573 1255.2375,-233.2336"/>
<polygon fill="#000000" stroke="#000000" points="1254.618,-236.6799 1265.1249,-235.3174 1256.0616,-229.8303 1254.618,-236.6799"/>
<text text-anchor="middle" x="887.0581" y="-312.8127" font-family="Times,serif" font-size="14.00" fill="#000000">an evening of graph lectures! what could possibly go wrong?!</text>
</g>
<!-- Graham_again_somehow -->
<g id="node9" class="node">
<title>Graham_again_somehow</title>
<ellipse fill="none" stroke="#000000" cx="2615.4356" cy="-155.6127" rx="109.9382" ry="109.9382"/>
<text text-anchor="middle" x="2615.4356" y="-151.4127" font-family="Times,serif" font-size="14.00" fill="#000000">Graham_again_somehow</text>
</g>
<!-- Jack&#45;&gt;Graham_again_somehow -->
<g id="edge9" class="edge">
<title>Jack&#45;&gt;Graham_again_somehow</title>
<path fill="none" stroke="#000000" d="M521.4228,-470.7852C528.7316,-401.8789 550.4179,-234.8309 591.7729,-199.6127 736.4981,-76.3637 2082.2729,-130.0263 2495.4033,-149.5907"/>
<polygon fill="#000000" stroke="#000000" points="2495.425,-153.0956 2505.58,-150.0747 2495.7576,-146.1035 2495.425,-153.0956"/>
<text text-anchor="middle" x="1723.219" y="-131.8127" font-family="Times,serif" font-size="14.00" fill="#000000">...i deserve this. i chose this.</text>
</g>
<!-- Agathe&#45;&gt;Jack -->
<g id="edge10" class="edge">
<title>Agathe&#45;&gt;Jack</title>
<path fill="none" stroke="#000000" d="M1324.048,-753.9317C1288.1486,-743.2425 1232.1104,-728.0272 1182.3433,-720.8127 1117.3441,-711.3901 644.9551,-734.1528 591.7729,-695.6127 566.1739,-677.0616 541.3828,-592.8897 528.2371,-541.3864"/>
<polygon fill="#000000" stroke="#000000" points="531.5972,-540.3964 525.7664,-531.5504 524.8081,-542.1018 531.5972,-540.3964"/>
<text text-anchor="middle" x="887.0581" y="-724.8127" font-family="Times,serif" font-size="14.00" fill="#000000">is someone cutting octonions? ah non, c’est rien, je suis juste en train de pleurer.</text>
</g>
<!-- Detlef&#45;&gt;Jack -->
<g id="edge11" class="edge">
<title>Detlef&#45;&gt;Jack</title>
<path fill="none" stroke="#000000" d="M1326.9387,-664.9791C1291.1027,-656.3944 1233.1799,-643.6829 1182.3433,-637.8127 1117.1231,-630.2816 648.6196,-651.4586 591.7729,-618.6127 561.1468,-600.917 541.5732,-564.7518 530.4422,-537.0966"/>
<polygon fill="#000000" stroke="#000000" points="533.6948,-535.8031 526.8528,-527.7137 527.1568,-538.3042 533.6948,-535.8031"/>
<text text-anchor="middle" x="887.0581" y="-642.8127" font-family="Times,serif" font-size="14.00" fill="#000000">it&#39;s nice that you&#39;re indulging in some extracurricular activities but I DO have a gp2 to finish you know...</text>
</g>
<!-- Pooh&#45;&gt;Jack -->
<g id="edge12" class="edge">
<title>Pooh&#45;&gt;Jack</title>
<path fill="none" stroke="#000000" d="M1331.0887,-583.0039C1295.6454,-575.5431 1235.035,-563.6822 1182.3433,-557.8127 921.2045,-528.7236 848.3411,-587.2911 591.7729,-530.6127 578.4349,-527.6662 564.4117,-522.4834 552.2473,-517.2459"/>
<polygon fill="#000000" stroke="#000000" points="553.4958,-513.9701 542.9388,-513.0754 550.6336,-520.3582 553.4958,-513.9701"/>
<text text-anchor="middle" x="887.0581" y="-562.8127" font-family="Times,serif" font-size="14.00" fill="#000000">&lt;immediately claws out eyeballs&gt;</text>
</g>
<!-- Tom&#45;&gt;Jack -->
<g id="edge13" class="edge">
<title>Tom&#45;&gt;Jack</title>
<path fill="none" stroke="#000000" d="M1332.6702,-505.3418C1297.4829,-497.9874 1235.8668,-486.2382 1182.3433,-481.8127 920.7603,-460.1838 852.1795,-448.9197 591.7729,-481.8127 579.5858,-483.3521 566.5225,-486.2784 554.8524,-489.3719"/>
<polygon fill="#000000" stroke="#000000" points="553.7123,-486.056 545.0126,-492.1028 555.5844,-492.801 553.7123,-486.056"/>
<text text-anchor="middle" x="887.0581" y="-486.8127" font-family="Times,serif" font-size="14.00" fill="#000000">I deserve better than this. I could have paired up with anyone else for ICAR.</text>
</g>
<!-- Tom&#45;&gt;unintelligible_screams_0xdeadb00b -->
<g id="edge14" class="edge">
<title>Tom&#45;&gt;unintelligible_screams_0xdeadb00b</title>
<path fill="none" stroke="#000000" d="M1390.6985,-510.1488C1472.656,-505.8005 1710.592,-491.3694 1906.1521,-461.6127 1909.8441,-461.0509 1913.5766,-460.4583 1917.3371,-459.8392"/>
<polygon fill="#000000" stroke="#000000" points="1918.0735,-463.2644 1927.3475,-458.1416 1916.9031,-456.3629 1918.0735,-463.2644"/>
<text text-anchor="middle" x="1723.219" y="-504.8127" font-family="Times,serif" font-size="14.00" fill="#000000">...actually never mind</text>
</g>
<!-- unintelligible_screams_0xdeadb00b&#45;&gt;Jack -->
<g id="edge15" class="edge">
<title>unintelligible_screams_0xdeadb00b&#45;&gt;Jack</title>
<path fill="none" stroke="#000000" d="M1924.0547,-419.1039C1813.0204,-414.6418 1658.2775,-409.1263 1522.2859,-406.8127 1315.4835,-403.2944 781.546,-345.3583 591.7729,-427.6127 578.6516,-433.3 566.6051,-442.5168 556.2353,-452.5157"/>
<polygon fill="#000000" stroke="#000000" points="553.4981,-450.3078 548.9893,-459.8954 558.4929,-455.2121 553.4981,-450.3078"/>
<text text-anchor="middle" x="1361.3146" y="-411.8127" font-family="Times,serif" font-size="14.00" fill="#000000">never, son</text>
</g>
<!-- unintelligible_screams_0xdeadb00b&#45;&gt;Graham_again_somehow -->
<g id="edge16" class="edge">
<title>unintelligible_screams_0xdeadb00b&#45;&gt;Graham_again_somehow</title>
<path fill="none" stroke="#000000" d="M2212.7074,-365.5002C2293.8329,-329.0949 2397.7872,-280.5587 2487.7167,-232.6127 2496.0255,-228.1828 2504.5512,-223.4576 2513.0643,-218.6104"/>
<polygon fill="#000000" stroke="#000000" points="2514.994,-221.5383 2521.9217,-213.5222 2511.5072,-215.4685 2514.994,-221.5383"/>
<text text-anchor="middle" x="2365.4288" y="-355.8127" font-family="Times,serif" font-size="14.00" fill="#000000">i would kill u if not for the laws of this land</text>
</g>
<!-- Graham_unfortunately&#45;&gt;Jack -->
<g id="edge17" class="edge">
<title>Graham_unfortunately&#45;&gt;Jack</title>
<path fill="none" stroke="#000000" d="M1269.8758,-298.435C1242.2212,-308.6366 1211.4577,-318.4885 1182.3433,-324.6127 1053.6334,-351.6867 702.3069,-292.528 591.7729,-363.8127 559.1898,-384.8259 540.0973,-425.4504 529.625,-456.9934"/>
<polygon fill="#000000" stroke="#000000" points="526.1775,-456.2899 526.5217,-466.8792 532.8562,-458.3865 526.1775,-456.2899"/>
<text text-anchor="middle" x="887.0581" y="-368.8127" font-family="Times,serif" font-size="14.00" fill="#000000">gbkshakegooseshitemotherfukerdropkickbooooooitaxevasiongraphgrammar</text>
</g>
<!-- Graham_unfortunately&#45;&gt;Graham_again_somehow -->
<g id="edge18" class="edge">
<title>Graham_unfortunately&#45;&gt;Graham_again_somehow</title>
<path fill="none" stroke="#000000" d="M1459.985,-251.4303C1687.7057,-232.5462 2249.2813,-185.9766 2495.9611,-165.5203"/>
<polygon fill="#000000" stroke="#000000" points="2496.3594,-168.9994 2506.0359,-164.6848 2495.7808,-162.0233 2496.3594,-168.9994"/>
<text text-anchor="middle" x="2074.6465" y="-217.8127" font-family="Times,serif" font-size="14.00" fill="#000000">mmmm, mirchiz...</text>
</g>
<!-- Graham_again_somehow&#45;&gt;Jack -->
<g id="edge19" class="edge">
<title>Graham_again_somehow&#45;&gt;Jack</title>
<path fill="none" stroke="#000000" d="M2507.1885,-135.9691C2130.2925,-70.1936 882.7072,124.7589 591.7729,-120.6127 540.0761,-164.2134 524.4006,-374.2364 520.0627,-461.9721"/>
<polygon fill="#000000" stroke="#000000" points="516.5626,-461.8923 519.5882,-472.046 523.5549,-462.2217 516.5626,-461.8923"/>
<text text-anchor="middle" x="1723.219" y="-51.8127" font-family="Times,serif" font-size="14.00" fill="#000000">pls turn to page 9928424 of my invoice for your share of the bills</text>
</g>
</g>
</svg>
