<?xml version="1.0" encoding="UTF-8" standalone="no"?>
<!DOCTYPE svg PUBLIC "-//W3C//DTD SVG 1.1//EN"
 "http://www.w3.org/Graphics/SVG/1.1/DTD/svg11.dtd">
<!-- Generated by graphviz version 2.40.1 (20161225.0304)
 -->
<!-- Title: finite_state_machine Pages: 1 -->
<svg width="660pt" height="360pt"
 viewBox="0.00 0.00 660.41 360.00" xmlns="http://www.w3.org/2000/svg" xmlns:xlink="http://www.w3.org/1999/xlink">
<g id="graph0" class="graph" transform="scale(.3684 .3684) rotate(0) translate(4 973.2944)">
<title>finite_state_machine</title>
<polygon fill="#ffffff" stroke="transparent" points="-4,4 -4,-973.2944 1788.8225,-973.2944 1788.8225,4 -4,4"/>
<!-- Sam -->
<g id="node1" class="node">
<title>Sam</title>
<ellipse fill="none" stroke="#000000" cx="28.2037" cy="-646.4944" rx="28.4088" ry="28.4088"/>
<text text-anchor="middle" x="28.2037" y="-642.2944" font-family="Times,serif" font-size="14.00" fill="#000000">Sam</text>
</g>
<!-- Jack -->
<g id="node9" class="node">
<title>Jack</title>
<ellipse fill="none" stroke="#000000" cx="345.4401" cy="-646.4944" rx="28.3649" ry="28.3649"/>
<ellipse fill="none" stroke="#000000" cx="345.4401" cy="-646.4944" rx="32.3892" ry="32.3892"/>
<text text-anchor="middle" x="345.4401" y="-642.2944" font-family="Times,serif" font-size="14.00" fill="#000000">Jack</text>
</g>
<!-- Sam&#45;&gt;Jack -->
<g id="edge9" class="edge">
<title>Sam&#45;&gt;Jack</title>
<path fill="none" stroke="#000000" d="M56.6355,-646.4944C112.6468,-646.4944 237.5146,-646.4944 303.1957,-646.4944"/>
<polygon fill="#000000" stroke="#000000" points="303.2093,-649.9945 313.2093,-646.4944 303.2092,-642.9945 303.2093,-649.9945"/>
<text text-anchor="middle" x="184.8267" y="-650.6944" font-family="Times,serif" font-size="14.00" fill="#000000">i could kill god for this</text>
</g>
<!-- Agathe -->
<g id="node2" class="node">
<title>Agathe</title>
<ellipse fill="none" stroke="#000000" cx="1165.1758" cy="-922.4944" rx="38.844" ry="38.844"/>
<text text-anchor="middle" x="1165.1758" y="-918.2944" font-family="Times,serif" font-size="14.00" fill="#000000">Agathe</text>
</g>
<!-- Agathe&#45;&gt;Jack -->
<g id="edge10" class="edge">
<title>Agathe&#45;&gt;Jack</title>
<path fill="none" stroke="#000000" d="M1127.9518,-910.2735C1092.0834,-899.0938 1036.0667,-883.1898 986.2045,-875.6944 921.2556,-865.931 446.4515,-892.103 395.6341,-850.4944 370.9635,-830.2944 356.5783,-742.5278 349.937,-688.9109"/>
<polygon fill="#000000" stroke="#000000" points="353.3753,-688.186 348.7113,-678.673 346.425,-689.0182 353.3753,-688.186"/>
<text text-anchor="middle" x="690.9193" y="-879.6944" font-family="Times,serif" font-size="14.00" fill="#000000">is someone cutting octonions? ah non, c’est rien, j’ai juste les larmes aux yeux</text>
</g>
<!-- Detlef -->
<g id="node3" class="node">
<title>Detlef</title>
<ellipse fill="none" stroke="#000000" cx="1165.1758" cy="-830.4944" rx="35.3276" ry="35.3276"/>
<text text-anchor="middle" x="1165.1758" y="-826.2944" font-family="Times,serif" font-size="14.00" fill="#000000">Detlef</text>
</g>
<!-- Detlef&#45;&gt;Jack -->
<g id="edge11" class="edge">
<title>Detlef&#45;&gt;Jack</title>
<path fill="none" stroke="#000000" d="M1131.2676,-819.9973C1095.5685,-809.4673 1037.5334,-793.8204 986.2045,-786.6944 953.6858,-782.1798 422.6605,-784.1337 395.6341,-765.4944 370.3467,-748.0543 357.7496,-715.2006 351.5023,-688.425"/>
<polygon fill="#000000" stroke="#000000" points="354.898,-687.5654 349.4056,-678.5054 348.0493,-689.013 354.898,-687.5654"/>
<text text-anchor="middle" x="690.9193" y="-790.6944" font-family="Times,serif" font-size="14.00" fill="#000000">it&#39;s nice that you&#39;re indulging in some extracurricular activities but I DO have a gp2 to finish you know...</text>
</g>
<!-- Pooh -->
<g id="node4" class="node">
<title>Pooh</title>
<ellipse fill="none" stroke="#000000" cx="1165.1758" cy="-746.4944" rx="30.7808" ry="30.7808"/>
<text text-anchor="middle" x="1165.1758" y="-742.2944" font-family="Times,serif" font-size="14.00" fill="#000000">Pooh</text>
</g>
<!-- Pooh&#45;&gt;Jack -->
<g id="edge12" class="edge">
<title>Pooh&#45;&gt;Jack</title>
<path fill="none" stroke="#000000" d="M1135.114,-738.5244C1092.0326,-727.2374 1014.7802,-707.5355 986.2045,-703.6944 921.1361,-694.948 457.5238,-706.4046 395.6341,-684.4944 389.1962,-682.2152 382.9107,-678.7848 377.0868,-674.9009"/>
<polygon fill="#000000" stroke="#000000" points="379.0677,-672.0139 368.9203,-668.9674 374.9531,-677.677 379.0677,-672.0139"/>
<text text-anchor="middle" x="690.9193" y="-707.6944" font-family="Times,serif" font-size="14.00" fill="#000000">&lt;immediately claws out eyeballs&gt;</text>
</g>
<!-- Tom -->
<g id="node5" class="node">
<title>Tom</title>
<ellipse fill="none" stroke="#000000" cx="1165.1758" cy="-668.4944" rx="29.0548" ry="29.0548"/>
<text text-anchor="middle" x="1165.1758" y="-664.2944" font-family="Times,serif" font-size="14.00" fill="#000000">Tom</text>
</g>
<!-- unintelligible_screams_0xdeadb00b -->
<g id="node8" class="node">
<title>unintelligible_screams_0xdeadb00b</title>
<ellipse fill="none" stroke="#000000" cx="1634.3281" cy="-150.4944" rx="150.4888" ry="150.4888"/>
<text text-anchor="middle" x="1634.3281" y="-146.2944" font-family="Times,serif" font-size="14.00" fill="#000000">unintelligible_screams_0xdeadb00b</text>
</g>
<!-- Tom&#45;&gt;unintelligible_screams_0xdeadb00b -->
<g id="edge14" class="edge">
<title>Tom&#45;&gt;unintelligible_screams_0xdeadb00b</title>
<path fill="none" stroke="#000000" d="M1194.589,-668.0247C1229.0724,-666.1102 1286.5371,-658.5296 1326.1471,-630.4944 1441.9004,-548.5665 1524.5852,-408.1013 1574.9774,-300.2238"/>
<polygon fill="#000000" stroke="#000000" points="1578.2794,-301.4221 1579.3012,-290.8766 1571.9262,-298.4831 1578.2794,-301.4221"/>
<text text-anchor="middle" x="1404.9904" y="-616.6944" font-family="Times,serif" font-size="14.00" fill="#000000">...actually never mind</text>
</g>
<!-- Tom&#45;&gt;Jack -->
<g id="edge13" class="edge">
<title>Tom&#45;&gt;Jack</title>
<path fill="none" stroke="#000000" d="M1136.5347,-661.1402C1093.7536,-650.2969 1015.1022,-630.9465 986.2045,-627.6944 725.3754,-598.3404 653.9074,-580.9135 395.6341,-627.6944 391.9859,-628.3552 388.2573,-629.2657 384.5619,-630.3322"/>
<polygon fill="#000000" stroke="#000000" points="383.3671,-627.0402 374.9351,-633.4552 385.5271,-633.6986 383.3671,-627.0402"/>
<text text-anchor="middle" x="690.9193" y="-632.6944" font-family="Times,serif" font-size="14.00" fill="#000000">I deserve better than this. I could have paired up with anyone else for ICAR.</text>
</g>
<!-- Graham_unfortunately -->
<g id="node6" class="node">
<title>Graham_unfortunately</title>
<ellipse fill="none" stroke="#000000" cx="1165.1758" cy="-522.4944" rx="98.9801" ry="98.9801"/>
<text text-anchor="middle" x="1165.1758" y="-518.2944" font-family="Times,serif" font-size="14.00" fill="#000000">Graham_unfortunately</text>
</g>
<!-- Graham_unfortunately&#45;&gt;Jack -->
<g id="edge15" class="edge">
<title>Graham_unfortunately&#45;&gt;Jack</title>
<path fill="none" stroke="#000000" d="M1070.7217,-492.7969C915.3651,-450.1136 602.5391,-390.7503 395.6341,-528.6944 370.3761,-545.534 357.7823,-577.9265 351.5289,-604.4883"/>
<polygon fill="#000000" stroke="#000000" points="348.091,-603.8283 349.4294,-614.3382 354.9372,-605.2875 348.091,-603.8283"/>
<text text-anchor="middle" x="690.9193" y="-533.6944" font-family="Times,serif" font-size="14.00" fill="#000000">dropkick goose shite</text>
</g>
<!-- Graham_again_somehow -->
<g id="node7" class="node">
<title>Graham_again_somehow</title>
<ellipse fill="none" stroke="#000000" cx="1165.1758" cy="-295.4944" rx="109.9382" ry="109.9382"/>
<text text-anchor="middle" x="1165.1758" y="-291.2944" font-family="Times,serif" font-size="14.00" fill="#000000">Graham_again_somehow</text>
</g>
<!-- Graham_again_somehow&#45;&gt;Jack -->
<g id="edge16" class="edge">
<title>Graham_again_somehow&#45;&gt;Jack</title>
<path fill="none" stroke="#000000" d="M1059.9775,-263.6218C895.8878,-221.0599 578.8666,-168.636 395.6341,-332.6944 375.6458,-350.591 357.0538,-522.4609 349.2763,-603.9844"/>
<polygon fill="#000000" stroke="#000000" points="345.7488,-604.1123 348.295,-614.3966 352.718,-604.7692 345.7488,-604.1123"/>
<text text-anchor="middle" x="690.9193" y="-337.6944" font-family="Times,serif" font-size="14.00" fill="#000000">pls turn to page 9928424 of my invoice for your share of the bills</text>
</g>
<!-- unintelligible_screams_0xdeadb00b&#45;&gt;Jack -->
<g id="edge17" class="edge">
<title>unintelligible_screams_0xdeadb00b&#45;&gt;Jack</title>
<path fill="none" stroke="#000000" d="M1485.7753,-125.8219C1191.4368,-80.6581 549.2951,-1.8462 395.6341,-145.4944 362.3888,-176.5734 350.0165,-488.6185 346.5577,-603.9476"/>
<polygon fill="#000000" stroke="#000000" points="343.053,-604.0612 346.2594,-614.1592 350.05,-604.2656 343.053,-604.0612"/>
<text text-anchor="middle" x="1165.1758" y="-107.6944" font-family="Times,serif" font-size="14.00" fill="#000000">never, son</text>
</g>
<!-- Jack&#45;&gt;Sam -->
<g id="edge1" class="edge">
<title>Jack&#45;&gt;Sam</title>
<path fill="none" stroke="#000000" d="M315.9451,-633.4552C309.2651,-631.0669 302.1134,-628.9383 295.2461,-627.6944 198.667,-610.2011 170.7315,-608.8477 74.4073,-627.6944 70.705,-628.4188 66.9248,-629.441 63.2004,-630.6388"/>
<polygon fill="#000000" stroke="#000000" points="61.7706,-627.4342 53.564,-634.1351 64.1582,-634.0145 61.7706,-627.4342"/>
<text text-anchor="middle" x="184.8267" y="-632.6944" font-family="Times,serif" font-size="14.00" fill="#000000">love 2 include u in all the friend groups</text>
</g>
<!-- Jack&#45;&gt;Agathe -->
<g id="edge2" class="edge">
<title>Jack&#45;&gt;Agathe</title>
<path fill="none" stroke="#000000" d="M347.1129,-678.9693C351.0052,-740.1395 362.9646,-868.7973 395.6341,-896.4944 504.1547,-988.4978 964.2405,-945.4784 1116.2251,-928.3665"/>
<polygon fill="#000000" stroke="#000000" points="1116.6658,-931.839 1126.2056,-927.2299 1115.8737,-924.8839 1116.6658,-931.839"/>
<text text-anchor="middle" x="690.9193" y="-956.6944" font-family="Times,serif" font-size="14.00" fill="#000000">so there i was, knuckle&#45;deep in Gödel, Escher, and also Bach, when all of a sudden...</text>
</g>
<!-- Jack&#45;&gt;Detlef -->
<g id="edge3" class="edge">
<title>Jack&#45;&gt;Detlef</title>
<path fill="none" stroke="#000000" d="M350.9334,-678.5523C358.9007,-720.8611 374.9945,-791.8291 395.6341,-807.4944 424.544,-829.4367 958.4976,-830.7015 1119.5622,-830.5814"/>
<polygon fill="#000000" stroke="#000000" points="1119.6261,-834.0814 1129.6227,-830.5717 1119.6192,-827.0814 1119.6261,-834.0814"/>
<text text-anchor="middle" x="690.9193" y="-833.6944" font-family="Times,serif" font-size="14.00" fill="#000000">i can no longer bear to suck this gp2</text>
</g>
<!-- Jack&#45;&gt;Pooh -->
<g id="edge4" class="edge">
<title>Jack&#45;&gt;Pooh</title>
<path fill="none" stroke="#000000" d="M356.6994,-677.1031C364.7439,-694.2523 377.4027,-714.2056 395.6341,-724.4944 427.5294,-742.4942 969.0687,-745.799 1124.047,-746.3771"/>
<polygon fill="#000000" stroke="#000000" points="1124.0944,-749.8772 1134.1067,-746.4128 1124.1192,-742.8773 1124.0944,-749.8772"/>
<text text-anchor="middle" x="690.9193" y="-748.6944" font-family="Times,serif" font-size="14.00" fill="#000000">such precious. much floof. abso &#45; FUUUUUUUUUCK</text>
</g>
<!-- Jack&#45;&gt;Tom -->
<g id="edge5" class="edge">
<title>Jack&#45;&gt;Tom</title>
<path fill="none" stroke="#000000" d="M377.8272,-647.3636C506.8799,-650.8271 984.297,-663.64 1125.5563,-667.4311"/>
<polygon fill="#000000" stroke="#000000" points="1125.8098,-670.939 1135.9001,-667.7087 1125.9976,-663.9416 1125.8098,-670.939"/>
<text text-anchor="middle" x="690.9193" y="-667.6944" font-family="Times,serif" font-size="14.00" fill="#000000">thank u 4 being normal</text>
</g>
<!-- Jack&#45;&gt;Graham_unfortunately -->
<g id="edge7" class="edge">
<title>Jack&#45;&gt;Graham_unfortunately</title>
<path fill="none" stroke="#000000" d="M359.3523,-617.1432C367.7433,-602.9197 379.8813,-587.1263 395.6341,-578.6944 453.5574,-547.6901 920.8308,-556.0251 986.2045,-549.4944 1009.3228,-547.1849 1034.0162,-543.9572 1057.4465,-540.5344"/>
<polygon fill="#000000" stroke="#000000" points="1058.0242,-543.9871 1067.4024,-539.0576 1056.997,-537.0628 1058.0242,-543.9871"/>
<text text-anchor="middle" x="690.9193" y="-583.6944" font-family="Times,serif" font-size="14.00" fill="#000000">an evening of graph lectures! what could possibly go wrong?!</text>
</g>
<!-- Jack&#45;&gt;Graham_again_somehow -->
<g id="edge8" class="edge">
<title>Jack&#45;&gt;Graham_again_somehow</title>
<path fill="none" stroke="#000000" d="M348.1675,-614.1479C353.5687,-558.4461 367.6054,-447.9502 395.6341,-422.6944 493.7977,-334.2423 857.1115,-381.6876 986.2045,-353.4944 1007.6504,-348.8107 1030.1708,-342.5888 1051.7236,-335.9592"/>
<polygon fill="#000000" stroke="#000000" points="1053.0497,-339.2117 1061.5507,-332.8885 1050.962,-332.5303 1053.0497,-339.2117"/>
<text text-anchor="middle" x="690.9193" y="-427.6944" font-family="Times,serif" font-size="14.00" fill="#000000">...i deserve this. i chose this.</text>
</g>
<!-- Jack&#45;&gt;unintelligible_screams_0xdeadb00b -->
<g id="edge6" class="edge">
<title>Jack&#45;&gt;unintelligible_screams_0xdeadb00b</title>
<path fill="none" stroke="#000000" d="M346.9103,-614.2899C351.5584,-519.3038 367.3275,-245.1911 395.6341,-217.4944 470.9899,-143.7622 1155.7699,-143.6251 1473.605,-147.6364"/>
<polygon fill="#000000" stroke="#000000" points="1473.7835,-151.1389 1483.8279,-147.7685 1473.874,-144.1395 1473.7835,-151.1389"/>
<text text-anchor="middle" x="1165.1758" y="-153.6944" font-family="Times,serif" font-size="14.00" fill="#000000">oh god fuck why are you like this and when will you stop</text>
</g>
</g>
</svg>
