<?xml version="1.0" encoding="UTF-8" standalone="no"?>
<!DOCTYPE svg PUBLIC "-//W3C//DTD SVG 1.1//EN"
 "http://www.w3.org/Graphics/SVG/1.1/DTD/svg11.dtd">
<!-- Generated by graphviz version 2.40.1 (20161225.0304)
 -->
<!-- Title: academic_neural_net Pages: 1 -->
<svg width="720pt" height="203pt"
 viewBox="0.00 0.00 720.00 202.61" xmlns="http://www.w3.org/2000/svg" xmlns:xlink="http://www.w3.org/1999/xlink">
<g id="graph0" class="graph" transform="scale(.2364 .2364) rotate(0) translate(4 853.1533)">
<title>academic_neural_net</title>
<polygon fill="#ffffff" stroke="transparent" points="-4,4 -4,-853.1533 3042.0022,-853.1533 3042.0022,4 -4,4"/>
<!-- Sam -->
<g id="node1" class="node">
<title>Sam</title>
<ellipse fill="none" stroke="#000000" cx="28.2037" cy="-500.3533" rx="28.4088" ry="28.4088"/>
<text text-anchor="middle" x="28.2037" y="-496.1533" font-family="Times,serif" font-size="14.00" fill="#000000">Sam</text>
</g>
<!-- Jack -->
<g id="node2" class="node">
<title>Jack</title>
<polygon fill="none" stroke="#000000" points="423.9383,-512.7597 381.5693,-512.7597 368.4765,-552.9078 355.3838,-512.7597 313.0147,-512.7597 347.292,-487.9468 334.1993,-447.7988 368.4765,-472.6116 402.7538,-447.7988 389.661,-487.9468 423.9383,-512.7597"/>
<text text-anchor="middle" x="368.4765" y="-496.1533" font-family="Times,serif" font-size="14.00" fill="#000000">Jack</text>
</g>
<!-- Sam&#45;&gt;Jack -->
<g id="edge1" class="edge">
<title>Sam&#45;&gt;Jack</title>
<path fill="none" stroke="#000000" d="M56.6299,-500.3533C114.7861,-500.3533 247.9287,-500.3533 319.9997,-500.3533"/>
<polygon fill="#000000" stroke="#000000" points="320.1739,-503.8534 330.1738,-500.3533 320.1738,-496.8534 320.1739,-503.8534"/>
<text text-anchor="middle" x="184.8267" y="-504.5533" font-family="Times,serif" font-size="14.00" fill="#000000">i could kill god for this</text>
</g>
<!-- Jack&#45;&gt;Sam -->
<g id="edge12" class="edge">
<title>Jack&#45;&gt;Sam</title>
<path fill="none" stroke="#000000" d="M342.7545,-491.1599C328.8812,-486.6848 311.347,-481.7955 295.2461,-479.5533 198.0337,-466.0152 170.3708,-458.9486 74.4073,-479.5533 70.5504,-480.3814 66.627,-481.5577 62.7787,-482.9347"/>
<polygon fill="#000000" stroke="#000000" points="61.4201,-479.7085 53.4482,-486.6871 64.032,-486.203 61.4201,-479.7085"/>
<text text-anchor="middle" x="184.8267" y="-484.5533" font-family="Times,serif" font-size="14.00" fill="#000000">love 2 include u in all the friend groups</text>
</g>
<!-- Agathe -->
<g id="node3" class="node">
<title>Agathe</title>
<ellipse fill="none" stroke="#000000" cx="1211.2486" cy="-759.3533" rx="38.844" ry="38.844"/>
<text text-anchor="middle" x="1211.2486" y="-755.1533" font-family="Times,serif" font-size="14.00" fill="#000000">Agathe</text>
</g>
<!-- Jack&#45;&gt;Agathe -->
<g id="edge13" class="edge">
<title>Jack&#45;&gt;Agathe</title>
<path fill="none" stroke="#000000" d="M374.3184,-535.0457C385.0294,-594.0667 409.6829,-710.009 441.7069,-734.3533 663.3929,-902.8758 1033.8757,-813.6795 1164.1835,-774.6105"/>
<polygon fill="#000000" stroke="#000000" points="1165.3227,-777.9224 1173.8719,-771.6645 1163.2862,-771.2252 1165.3227,-777.9224"/>
<text text-anchor="middle" x="736.9921" y="-836.5533" font-family="Times,serif" font-size="14.00" fill="#000000">so there i was, knuckle&#45;deep in Gödel, Escher, and also Bach, when all of a sudden...</text>
</g>
<!-- Detlef -->
<g id="node4" class="node">
<title>Detlef</title>
<ellipse fill="none" stroke="#000000" cx="1211.2486" cy="-667.3533" rx="35.3276" ry="35.3276"/>
<text text-anchor="middle" x="1211.2486" y="-663.1533" font-family="Times,serif" font-size="14.00" fill="#000000">Detlef</text>
</g>
<!-- Jack&#45;&gt;Detlef -->
<g id="edge14" class="edge">
<title>Jack&#45;&gt;Detlef</title>
<path fill="none" stroke="#000000" d="M374.9251,-533.4662C383.5917,-568.0224 402.6649,-620.5564 441.7069,-645.3533 502.7104,-684.0987 1009.9083,-673.0791 1165.8275,-668.7269"/>
<polygon fill="#000000" stroke="#000000" points="1166.1125,-672.2204 1176.0092,-668.4382 1165.914,-665.2232 1166.1125,-672.2204"/>
<text text-anchor="middle" x="736.9921" y="-677.5533" font-family="Times,serif" font-size="14.00" fill="#000000">i can no longer bear to suck this gp2</text>
</g>
<!-- Pooh -->
<g id="node5" class="node">
<title>Pooh</title>
<ellipse fill="none" stroke="#000000" cx="1211.2486" cy="-583.3533" rx="30.7808" ry="30.7808"/>
<text text-anchor="middle" x="1211.2486" y="-579.1533" font-family="Times,serif" font-size="14.00" fill="#000000">Pooh</text>
</g>
<!-- Jack&#45;&gt;Pooh -->
<g id="edge15" class="edge">
<title>Jack&#45;&gt;Pooh</title>
<path fill="none" stroke="#000000" d="M380.4796,-516.1323C393.5606,-531.9229 416.0781,-555.2753 441.7069,-565.3533 509.4927,-592.0087 1019.9514,-586.3179 1169.9315,-584.0425"/>
<polygon fill="#000000" stroke="#000000" points="1170.1515,-587.5396 1180.0961,-583.885 1170.043,-580.5404 1170.1515,-587.5396"/>
<text text-anchor="middle" x="736.9921" y="-589.5533" font-family="Times,serif" font-size="14.00" fill="#000000">such precious. much floof. abso &#45; FUUUUUUUUUCK</text>
</g>
<!-- Tom -->
<g id="node6" class="node">
<title>Tom</title>
<ellipse fill="none" stroke="#000000" cx="1211.2486" cy="-316.3533" rx="29.0548" ry="29.0548"/>
<text text-anchor="middle" x="1211.2486" y="-312.1533" font-family="Times,serif" font-size="14.00" fill="#000000">Tom</text>
</g>
<!-- Jack&#45;&gt;Tom -->
<g id="edge16" class="edge">
<title>Jack&#45;&gt;Tom</title>
<path fill="none" stroke="#000000" d="M375.2103,-467.4949C384.0875,-433.5136 403.3089,-382.0627 441.7069,-357.5533 469.3841,-339.887 999.5224,-336.6417 1032.2773,-334.3533 1080.4781,-330.9858 1135.792,-325.1135 1172.0129,-320.9944"/>
<polygon fill="#000000" stroke="#000000" points="1172.6204,-324.4477 1182.1559,-319.8299 1171.8219,-317.4934 1172.6204,-324.4477"/>
<text text-anchor="middle" x="736.9921" y="-362.5533" font-family="Times,serif" font-size="14.00" fill="#000000">thank u 4 being normal despite doing the same degree</text>
</g>
<!-- unintelligible_screams_0xdeadb00b -->
<g id="node7" class="node">
<title>unintelligible_screams_0xdeadb00b</title>
<ellipse fill="none" stroke="#000000" cx="2017.2514" cy="-310.3533" rx="150.4888" ry="150.4888"/>
<text text-anchor="middle" x="2017.2514" y="-306.1533" font-family="Times,serif" font-size="14.00" fill="#000000">unintelligible_screams_0xdeadb00b</text>
</g>
<!-- Jack&#45;&gt;unintelligible_screams_0xdeadb00b -->
<g id="edge19" class="edge">
<title>Jack&#45;&gt;unintelligible_screams_0xdeadb00b</title>
<path fill="none" stroke="#000000" d="M392.0177,-489.3753C406.1194,-483.3037 424.5804,-476.2241 441.7069,-472.3533 644.037,-426.6235 1165.4706,-415.1868 1372.2199,-398.3533 1569.6276,-382.2803 1620.975,-394.0503 1816.3183,-361.3533 1831.1686,-358.8676 1846.5315,-355.8323 1861.8427,-352.4934"/>
<polygon fill="#000000" stroke="#000000" points="1862.8896,-355.8462 1871.891,-350.2582 1861.3696,-349.0132 1862.8896,-355.8462"/>
<text text-anchor="middle" x="1211.2486" y="-420.5533" font-family="Times,serif" font-size="14.00" fill="#000000">oh god fuck why are you like this and when will you stop</text>
</g>
<!-- Graham_unfortunately -->
<g id="node8" class="node">
<title>Graham_unfortunately</title>
<ellipse fill="none" stroke="#000000" cx="2579.7504" cy="-436.3533" rx="98.9801" ry="98.9801"/>
<text text-anchor="middle" x="2579.7504" y="-432.1533" font-family="Times,serif" font-size="14.00" fill="#000000">Graham_unfortunately</text>
</g>
<!-- Jack&#45;&gt;Graham_unfortunately -->
<g id="edge17" class="edge">
<title>Jack&#45;&gt;Graham_unfortunately</title>
<path fill="none" stroke="#000000" d="M406.9202,-500.5421C510.7019,-501.0475 805.2545,-502.4538 1050.2773,-503.3533 1201.3626,-503.9079 1239.1339,-504.1311 1390.2199,-504.3533 1579.5968,-504.6318 1626.9824,-508.2974 1816.3183,-504.3533 1987.0366,-500.797 2029.6372,-496.7785 2200.1845,-488.3533 2316.9328,-482.5858 2347.7937,-494.4743 2462.7603,-473.3533 2467.1209,-472.5522 2471.5457,-471.6368 2475.9955,-470.631"/>
<polygon fill="#000000" stroke="#000000" points="2476.8507,-474.0252 2485.7615,-468.2939 2475.2215,-467.2174 2476.8507,-474.0252"/>
<text text-anchor="middle" x="1603.2691" y="-510.5533" font-family="Times,serif" font-size="14.00" fill="#000000">an evening of graph lectures! what could possibly go wrong?!</text>
</g>
<!-- Graham_again_somehow -->
<g id="node9" class="node">
<title>Graham_again_somehow</title>
<ellipse fill="none" stroke="#000000" cx="2928.2833" cy="-125.3533" rx="109.9382" ry="109.9382"/>
<text text-anchor="middle" x="2928.2833" y="-121.1533" font-family="Times,serif" font-size="14.00" fill="#000000">Graham_again_somehow</text>
</g>
<!-- Jack&#45;&gt;Graham_again_somehow -->
<g id="edge18" class="edge">
<title>Jack&#45;&gt;Graham_again_somehow</title>
<path fill="none" stroke="#000000" d="M372.4472,-469.7124C381.4133,-405.5378 405.3222,-260.2928 441.7069,-228.3533 701.0338,-.7091 866.1801,-125.3533 1211.2486,-125.3533 1211.2486,-125.3533 1211.2486,-125.3533 2579.7504,-125.3533 2655.7225,-125.3533 2741.0097,-125.3533 2808.2006,-125.3533"/>
<polygon fill="#000000" stroke="#000000" points="2808.4015,-128.8534 2818.4015,-125.3533 2808.4015,-121.8534 2808.4015,-128.8534"/>
<text text-anchor="middle" x="2017.2514" y="-129.5533" font-family="Times,serif" font-size="14.00" fill="#000000">...i deserve this. i chose this.</text>
</g>
<!-- Agathe&#45;&gt;Jack -->
<g id="edge2" class="edge">
<title>Agathe&#45;&gt;Jack</title>
<path fill="none" stroke="#000000" d="M1173.5748,-748.4064C1137.6167,-738.4719 1081.7456,-724.3676 1032.2773,-717.5533 967.2083,-708.59 494.9928,-729.7582 441.7069,-691.3533 416.5729,-673.2383 391.6822,-591.092 378.3786,-540.6117"/>
<polygon fill="#000000" stroke="#000000" points="381.6962,-539.4616 375.7977,-530.6606 374.9204,-541.219 381.6962,-539.4616"/>
<text text-anchor="middle" x="736.9921" y="-721.5533" font-family="Times,serif" font-size="14.00" fill="#000000">is someone cutting octonions? ah non, c’est rien, je suis juste en train de pleurer.</text>
</g>
<!-- Detlef&#45;&gt;Jack -->
<g id="edge3" class="edge">
<title>Detlef&#45;&gt;Jack</title>
<path fill="none" stroke="#000000" d="M1177.2455,-658.127C1141.469,-648.8582 1083.3716,-635.045 1032.2773,-628.5533 967.1315,-620.2762 499.3207,-636.8675 441.7069,-605.3533 413.6491,-590.0059 393.9962,-558.7363 382.1645,-534.2936"/>
<polygon fill="#000000" stroke="#000000" points="385.2321,-532.5878 377.8648,-524.9738 378.8759,-535.5203 385.2321,-532.5878"/>
<text text-anchor="middle" x="736.9921" y="-632.5533" font-family="Times,serif" font-size="14.00" fill="#000000">it&#39;s nice that you&#39;re indulging in some extracurricular activities but I DO have a gp2 to finish you know...</text>
</g>
<!-- Pooh&#45;&gt;Jack -->
<g id="edge4" class="edge">
<title>Pooh&#45;&gt;Jack</title>
<path fill="none" stroke="#000000" d="M1181.0691,-576.0194C1145.6692,-567.7593 1085.0997,-554.6899 1032.2773,-548.5533 771.354,-518.2407 699.9451,-573.4456 441.7069,-525.3533 430.5842,-523.2819 418.8542,-519.8677 408.1203,-516.2184"/>
<polygon fill="#000000" stroke="#000000" points="409.1834,-512.8818 398.5887,-512.8326 406.8403,-519.478 409.1834,-512.8818"/>
<text text-anchor="middle" x="736.9921" y="-552.5533" font-family="Times,serif" font-size="14.00" fill="#000000">&lt;immediately claws out eyeballs&gt;</text>
</g>
<!-- Tom&#45;&gt;Jack -->
<g id="edge6" class="edge">
<title>Tom&#45;&gt;Jack</title>
<path fill="none" stroke="#000000" d="M1183.5828,-306.3854C1076.6741,-269.7534 684.456,-153.0202 441.7069,-317.5533 394.4167,-349.6062 377.6617,-417.7016 371.7277,-461.129"/>
<polygon fill="#000000" stroke="#000000" points="368.2526,-460.7128 370.499,-471.0667 375.1997,-461.5718 368.2526,-460.7128"/>
<text text-anchor="middle" x="736.9921" y="-322.5533" font-family="Times,serif" font-size="14.00" fill="#000000">I deserve better than this. I could have paired up with anyone else for ICAR.</text>
</g>
<!-- Tom&#45;&gt;unintelligible_screams_0xdeadb00b -->
<g id="edge5" class="edge">
<title>Tom&#45;&gt;unintelligible_screams_0xdeadb00b</title>
<path fill="none" stroke="#000000" d="M1240.8906,-316.1326C1339.154,-315.4011 1659.1309,-313.0192 1856.3043,-311.5514"/>
<polygon fill="#000000" stroke="#000000" points="1856.5023,-315.0501 1866.4759,-311.4757 1856.4501,-308.0503 1856.5023,-315.0501"/>
<text text-anchor="middle" x="1603.2691" y="-319.5533" font-family="Times,serif" font-size="14.00" fill="#000000">...actually never mind</text>
</g>
<!-- unintelligible_screams_0xdeadb00b&#45;&gt;Jack -->
<g id="edge11" class="edge">
<title>unintelligible_screams_0xdeadb00b&#45;&gt;Jack</title>
<path fill="none" stroke="#000000" d="M1867.8686,-330.7347C1850.5059,-332.7915 1833.0348,-334.72 1816.3183,-336.3533 1740.1466,-343.7954 511.434,-395.7991 441.7069,-427.3533 428.4187,-433.3667 416.1887,-442.9165 405.6838,-453.1521"/>
<polygon fill="#000000" stroke="#000000" points="403.1749,-450.7117 398.695,-460.3128 408.1845,-455.6009 403.1749,-450.7117"/>
<text text-anchor="middle" x="1211.2486" y="-381.5533" font-family="Times,serif" font-size="14.00" fill="#000000">never, son</text>
</g>
<!-- unintelligible_screams_0xdeadb00b&#45;&gt;Graham_unfortunately -->
<g id="edge10" class="edge">
<title>unintelligible_screams_0xdeadb00b&#45;&gt;Graham_unfortunately</title>
<path fill="none" stroke="#000000" d="M2164.3067,-343.2937C2261.158,-364.9885 2385.7403,-392.8949 2473.1168,-412.4673"/>
<polygon fill="#000000" stroke="#000000" points="2472.5264,-415.9217 2483.0496,-414.6923 2474.0565,-409.091 2472.5264,-415.9217"/>
<text text-anchor="middle" x="2340.4724" y="-413.5533" font-family="Times,serif" font-size="14.00" fill="#000000">i would kill u if not for the laws of this land</text>
</g>
<!-- Graham_unfortunately&#45;&gt;Jack -->
<g id="edge8" class="edge">
<title>Graham_unfortunately&#45;&gt;Jack</title>
<path fill="none" stroke="#000000" d="M2481.1793,-446.8231C2404.6404,-454.4922 2295.8015,-464.3937 2200.1845,-469.3533 2017.706,-478.8183 686.8118,-496.2707 416.3557,-499.7433"/>
<polygon fill="#000000" stroke="#000000" points="416.0433,-496.2469 406.0891,-499.8749 416.1332,-503.2463 416.0433,-496.2469"/>
<text text-anchor="middle" x="1603.2691" y="-490.5533" font-family="Times,serif" font-size="14.00" fill="#000000">gbkshakegooseshitemotherfukerdropkickbooooooitaxevasiongraphgrammar</text>
</g>
<!-- Graham_unfortunately&#45;&gt;Graham_again_somehow -->
<g id="edge7" class="edge">
<title>Graham_unfortunately&#45;&gt;Graham_again_somehow</title>
<path fill="none" stroke="#000000" d="M2653.6652,-370.3982C2707.6893,-322.1919 2781.2321,-256.5688 2838.616,-205.3645"/>
<polygon fill="#000000" stroke="#000000" points="2841.1132,-207.827 2846.2443,-198.5576 2836.4526,-202.6041 2841.1132,-207.827"/>
<text text-anchor="middle" x="2748.6524" y="-331.5533" font-family="Times,serif" font-size="14.00" fill="#000000">mmmm, mirchiz...</text>
</g>
<!-- Graham_again_somehow&#45;&gt;Jack -->
<g id="edge9" class="edge">
<title>Graham_again_somehow&#45;&gt;Jack</title>
<path fill="none" stroke="#000000" d="M2821.37,-100.5602C2752.73,-86.7664 2661.4588,-72.3533 2579.7504,-72.3533 1211.2486,-72.3533 1211.2486,-72.3533 1211.2486,-72.3533 868.7912,-72.3533 699.6919,113.8597 441.7069,-111.3533 389.4719,-156.9528 374.0844,-372.3751 369.91,-461.5541"/>
<polygon fill="#000000" stroke="#000000" points="366.4029,-461.6381 369.4548,-471.7838 373.396,-461.9493 366.4029,-461.6381"/>
<text text-anchor="middle" x="2017.2514" y="-76.5533" font-family="Times,serif" font-size="14.00" fill="#000000">pls turn to page 9928424 of my invoice for your share of the bills</text>
</g>
</g>
</svg>
