<?xml version="1.0" encoding="UTF-8" standalone="no"?>
<!DOCTYPE svg PUBLIC "-//W3C//DTD SVG 1.1//EN"
 "http://www.w3.org/Graphics/SVG/1.1/DTD/svg11.dtd">
<!-- Generated by graphviz version 2.40.1 (20161225.0304)
 -->
<!-- Title: academic_neural_net Pages: 1 -->
<svg width="720pt" height="289pt"
 viewBox="0.00 0.00 720.00 289.36" xmlns="http://www.w3.org/2000/svg" xmlns:xlink="http://www.w3.org/1999/xlink">
<g id="graph0" class="graph" transform="scale(.3172 .3172) rotate(0) translate(4 908.2251)">
<title>academic_neural_net</title>
<polygon fill="#ffffff" stroke="transparent" points="-4,4 -4,-908.2251 2265.8424,-908.2251 2265.8424,4 -4,4"/>
<!-- Jack -->
<g id="node1" class="node">
<title>Jack</title>
<polygon fill="none" stroke="#000000" points="110.6922,-410.8316 68.3232,-410.8316 55.2304,-450.9796 42.1377,-410.8316 -.2314,-410.8316 34.0459,-386.0187 20.9531,-345.8706 55.2304,-370.6835 89.5077,-345.8706 76.4149,-386.0187 110.6922,-410.8316"/>
<text text-anchor="middle" x="55.2304" y="-394.2251" font-family="Times,serif" font-size="14.00" fill="#000000">Jack</text>
</g>
<!-- Sam -->
<g id="node2" class="node">
<title>Sam</title>
<ellipse fill="none" stroke="#000000" cx="898.0025" cy="-827.4251" rx="28.4088" ry="28.4088"/>
<text text-anchor="middle" x="898.0025" y="-823.2251" font-family="Times,serif" font-size="14.00" fill="#000000">Sam</text>
</g>
<!-- Jack&#45;&gt;Sam -->
<g id="edge1" class="edge">
<title>Jack&#45;&gt;Sam</title>
<path fill="none" stroke="#000000" d="M57.568,-443.8747C63.172,-533.0531 80.6523,-725.987 128.4608,-768.4251 343.406,-959.2253 738.4093,-871.7096 860.833,-838.3197"/>
<polygon fill="#000000" stroke="#000000" points="862.1308,-841.5919 870.8315,-835.5463 860.2598,-834.8466 862.1308,-841.5919"/>
<text text-anchor="middle" x="423.746" y="-891.6251" font-family="Times,serif" font-size="14.00" fill="#000000">love 2 include u in all the friend groups</text>
</g>
<!-- Graham_unfortunately -->
<g id="node3" class="node">
<title>Graham_unfortunately</title>
<ellipse fill="none" stroke="#000000" cx="898.0025" cy="-682.4251" rx="98.9801" ry="98.9801"/>
<text text-anchor="middle" x="898.0025" y="-678.2251" font-family="Times,serif" font-size="14.00" fill="#000000">Graham_unfortunately</text>
</g>
<!-- Jack&#45;&gt;Graham_unfortunately -->
<g id="edge2" class="edge">
<title>Jack&#45;&gt;Graham_unfortunately</title>
<path fill="none" stroke="#000000" d="M61.052,-433.6118C71.7315,-493.4889 96.3378,-611.184 128.4608,-636.4251 228.1159,-714.7308 601.5006,-702.3508 789.0585,-690.6071"/>
<polygon fill="#000000" stroke="#000000" points="789.4621,-694.0886 799.2195,-689.9601 789.0173,-687.1027 789.4621,-694.0886"/>
<text text-anchor="middle" x="423.746" y="-702.6251" font-family="Times,serif" font-size="14.00" fill="#000000">an evening of graph lectures! what could possibly go wrong?!</text>
</g>
<!-- Graham_again_somehow -->
<g id="node4" class="node">
<title>Graham_again_somehow</title>
<ellipse fill="none" stroke="#000000" cx="2152.1235" cy="-524.4251" rx="109.9382" ry="109.9382"/>
<text text-anchor="middle" x="2152.1235" y="-520.2251" font-family="Times,serif" font-size="14.00" fill="#000000">Graham_again_somehow</text>
</g>
<!-- Jack&#45;&gt;Graham_again_somehow -->
<g id="edge3" class="edge">
<title>Jack&#45;&gt;Graham_again_somehow</title>
<path fill="none" stroke="#000000" d="M63.1002,-426.9251C72.9821,-456.6328 93.087,-501.6909 128.4608,-522.4251 285.0334,-614.1996 1580.3535,-531.4913 1761.8288,-529.4251 1852.4554,-528.3934 1954.9169,-527.0749 2032.1111,-526.051"/>
<polygon fill="#000000" stroke="#000000" points="2032.3999,-529.5476 2042.3525,-525.9149 2032.3069,-522.5482 2032.3999,-529.5476"/>
<text text-anchor="middle" x="1259.9069" y="-560.6251" font-family="Times,serif" font-size="14.00" fill="#000000">...i deserve this. i chose this.</text>
</g>
<!-- Agathe -->
<g id="node5" class="node">
<title>Agathe</title>
<ellipse fill="none" stroke="#000000" cx="898.0025" cy="-488.4251" rx="38.844" ry="38.844"/>
<text text-anchor="middle" x="898.0025" y="-484.2251" font-family="Times,serif" font-size="14.00" fill="#000000">Agathe</text>
</g>
<!-- Jack&#45;&gt;Agathe -->
<g id="edge4" class="edge">
<title>Jack&#45;&gt;Agathe</title>
<path fill="none" stroke="#000000" d="M67.0785,-414.8907C80.0331,-431.3762 102.4489,-455.779 128.4608,-466.4251 259.3748,-520.0056 699.9028,-500.0221 848.5447,-491.4945"/>
<polygon fill="#000000" stroke="#000000" points="848.9545,-494.9767 858.7342,-490.9015 848.5478,-487.9885 848.9545,-494.9767"/>
<text text-anchor="middle" x="423.746" y="-505.6251" font-family="Times,serif" font-size="14.00" fill="#000000">so there i was, knuckle&#45;deep in Gödel, Escher, and also Bach, when all of a sudden...</text>
</g>
<!-- unintelligible_screams_0xdeadb00b -->
<g id="node6" class="node">
<title>unintelligible_screams_0xdeadb00b</title>
<ellipse fill="none" stroke="#000000" cx="1611.3344" cy="-370.4251" rx="150.4888" ry="150.4888"/>
<text text-anchor="middle" x="1611.3344" y="-366.2251" font-family="Times,serif" font-size="14.00" fill="#000000">unintelligible_screams_0xdeadb00b</text>
</g>
<!-- Jack&#45;&gt;unintelligible_screams_0xdeadb00b -->
<g id="edge5" class="edge">
<title>Jack&#45;&gt;unintelligible_screams_0xdeadb00b</title>
<path fill="none" stroke="#000000" d="M95.515,-399.723C106.2219,-400.0138 117.7784,-400.2793 128.4608,-400.4251 390.9121,-404.0084 456.5696,-403.1444 719.0312,-400.4251 1040.7758,-397.0916 1121.5604,-403.0345 1442.84,-385.4251 1445.564,-385.2758 1448.3121,-385.1176 1451.079,-384.9514"/>
<polygon fill="#000000" stroke="#000000" points="1451.41,-388.4375 1461.1701,-384.3155 1450.9697,-381.4514 1451.41,-388.4375"/>
<text text-anchor="middle" x="898.0025" y="-403.6251" font-family="Times,serif" font-size="14.00" fill="#000000">oh god fuck why are you like this and when will you stop</text>
</g>
<!-- Tom -->
<g id="node7" class="node">
<title>Tom</title>
<ellipse fill="none" stroke="#000000" cx="898.0025" cy="-349.4251" rx="29.0548" ry="29.0548"/>
<text text-anchor="middle" x="898.0025" y="-345.2251" font-family="Times,serif" font-size="14.00" fill="#000000">Tom</text>
</g>
<!-- Jack&#45;&gt;Tom -->
<g id="edge6" class="edge">
<title>Jack&#45;&gt;Tom</title>
<path fill="none" stroke="#000000" d="M83.9261,-391.5179C97.3688,-388.568 113.6507,-385.401 128.4608,-383.6251 389.2707,-352.3515 456.6856,-373.6387 719.0312,-360.4251 766.9952,-358.0093 822.145,-354.5105 858.4016,-352.1112"/>
<polygon fill="#000000" stroke="#000000" points="858.8158,-355.5915 868.5612,-351.435 858.3508,-348.6069 858.8158,-355.5915"/>
<text text-anchor="middle" x="423.746" y="-387.6251" font-family="Times,serif" font-size="14.00" fill="#000000">thank u 4 being normal despite doing the same degree</text>
</g>
<!-- Detlef -->
<g id="node8" class="node">
<title>Detlef</title>
<ellipse fill="none" stroke="#000000" cx="898.0025" cy="-267.4251" rx="35.3276" ry="35.3276"/>
<text text-anchor="middle" x="898.0025" y="-263.2251" font-family="Times,serif" font-size="14.00" fill="#000000">Detlef</text>
</g>
<!-- Jack&#45;&gt;Detlef -->
<g id="edge7" class="edge">
<title>Jack&#45;&gt;Detlef</title>
<path fill="none" stroke="#000000" d="M82.2672,-351.0108C94.193,-334.6353 109.7813,-318.048 128.4608,-308.6251 187.1143,-279.0375 653.4562,-284.3718 719.0312,-280.4251 764.4577,-277.6912 816.3166,-273.8444 852.4755,-271.045"/>
<polygon fill="#000000" stroke="#000000" points="853.0051,-274.5144 862.7032,-270.2487 852.4617,-267.5356 853.0051,-274.5144"/>
<text text-anchor="middle" x="423.746" y="-312.6251" font-family="Times,serif" font-size="14.00" fill="#000000">i can no longer bear to suck this gp2</text>
</g>
<!-- Pooh -->
<g id="node9" class="node">
<title>Pooh</title>
<ellipse fill="none" stroke="#000000" cx="898.0025" cy="-179.4251" rx="30.7933" ry="30.7933"/>
<ellipse fill="none" stroke="#000000" cx="898.0025" cy="-179.4251" rx="34.7808" ry="34.7808"/>
<text text-anchor="middle" x="898.0025" y="-175.2251" font-family="Times,serif" font-size="14.00" fill="#000000">Pooh</text>
</g>
<!-- Jack&#45;&gt;Pooh -->
<g id="edge8" class="edge">
<title>Jack&#45;&gt;Pooh</title>
<path fill="none" stroke="#000000" d="M57.8533,-368.765C63.2435,-327.6774 79.5496,-254.6641 128.4608,-220.6251 155.4081,-201.8717 686.2895,-201.8388 719.0312,-199.4251 764.7212,-196.057 816.7441,-189.9918 852.8798,-185.4207"/>
<polygon fill="#000000" stroke="#000000" points="853.6198,-188.8547 863.0952,-184.1148 852.7321,-181.9112 853.6198,-188.8547"/>
<text text-anchor="middle" x="423.746" y="-224.6251" font-family="Times,serif" font-size="14.00" fill="#000000">such precious. much floof. abso &#45; FUUUUUUUUUCK</text>
</g>
<!-- Sam&#45;&gt;Jack -->
<g id="edge9" class="edge">
<title>Sam&#45;&gt;Jack</title>
<path fill="none" stroke="#000000" d="M869.5742,-828.3429C834.4663,-827.9619 774.7761,-822.1728 737.0312,-790.4251 721.2388,-777.1419 735.9431,-759.4503 719.0312,-747.6251 665.1932,-709.9804 178.8283,-761.6007 128.4608,-719.4251 87.9039,-685.4645 67.713,-532.8212 59.6389,-450.858"/>
<polygon fill="#000000" stroke="#000000" points="63.1077,-450.3641 58.6687,-440.7441 56.1396,-451.0326 63.1077,-450.3641"/>
<text text-anchor="middle" x="423.746" y="-751.6251" font-family="Times,serif" font-size="14.00" fill="#000000">you wouldn&#39;t get this self help book because you&#39;re not gay. sorry</text>
</g>
<!-- Graham_unfortunately&#45;&gt;Jack -->
<g id="edge10" class="edge">
<title>Graham_unfortunately&#45;&gt;Jack</title>
<path fill="none" stroke="#000000" d="M807.0623,-642.8937C779.2901,-632.3534 748.3376,-622.1064 719.0312,-615.6251 590.4981,-587.1996 235.4361,-646.1393 128.4608,-569.4251 88.7458,-540.9447 70.3951,-486.3834 62.0283,-446.527"/>
<polygon fill="#000000" stroke="#000000" points="65.4176,-445.6218 60.0627,-436.4798 58.5478,-446.9657 65.4176,-445.6218"/>
<text text-anchor="middle" x="423.746" y="-619.6251" font-family="Times,serif" font-size="14.00" fill="#000000">gbkshakegooseshitemotherfukerdropkickbooooooitaxevasiongraphgrammar</text>
</g>
<!-- Graham_unfortunately&#45;&gt;Graham_again_somehow -->
<g id="edge11" class="edge">
<title>Graham_unfortunately&#45;&gt;Graham_again_somehow</title>
<path fill="none" stroke="#000000" d="M997.1926,-680.3967C1194.931,-674.6222 1651.3002,-652.6117 2024.4046,-569.4251 2029.3685,-568.3184 2034.4054,-567.0774 2039.4677,-565.7327"/>
<polygon fill="#000000" stroke="#000000" points="2040.5209,-569.0728 2049.2214,-563.0269 2038.6496,-562.3275 2040.5209,-569.0728"/>
<text text-anchor="middle" x="1611.3344" y="-655.6251" font-family="Times,serif" font-size="14.00" fill="#000000">mmmm, mirchiz...</text>
</g>
<!-- Graham_again_somehow&#45;&gt;Jack -->
<g id="edge12" class="edge">
<title>Graham_again_somehow&#45;&gt;Jack</title>
<path fill="none" stroke="#000000" d="M2069.1155,-452.6292C2054.3232,-440.1087 2038.9832,-427.2989 2024.4046,-415.4251 1909.8192,-322.0998 1892.0965,-281.2086 1761.8288,-211.4251 1630.0394,-140.8265 1590.0009,-131.0125 1442.84,-104.6251 1155.3192,-53.0699 357.527,92.8339 128.4608,-88.4251 86.3697,-121.7316 66.0057,-282.7732 58.6202,-358.6812"/>
<polygon fill="#000000" stroke="#000000" points="55.1199,-358.5199 57.6633,-368.8049 62.0888,-359.1787 55.1199,-358.5199"/>
<text text-anchor="middle" x="1259.9069" y="-109.6251" font-family="Times,serif" font-size="14.00" fill="#000000">pls turn to page 9928424 of my invoice for your share of the bills</text>
</g>
<!-- Agathe&#45;&gt;Jack -->
<g id="edge13" class="edge">
<title>Agathe&#45;&gt;Jack</title>
<path fill="none" stroke="#000000" d="M860.7105,-477.1713C824.7928,-466.891 768.7418,-452.3072 719.0312,-445.6251 588.8944,-428.1323 257.1805,-452.364 128.4608,-426.4251 115.8475,-423.8834 102.5641,-419.4008 90.8254,-414.7574"/>
<polygon fill="#000000" stroke="#000000" points="91.9558,-411.4376 81.3768,-410.8582 89.2854,-417.9083 91.9558,-411.4376"/>
<text text-anchor="middle" x="423.746" y="-449.6251" font-family="Times,serif" font-size="14.00" fill="#000000">is someone cutting octonions? ah non, c’est rien, je suis juste en train de pleurer.</text>
</g>
<!-- unintelligible_screams_0xdeadb00b&#45;&gt;Jack -->
<g id="edge14" class="edge">
<title>unintelligible_screams_0xdeadb00b&#45;&gt;Jack</title>
<path fill="none" stroke="#000000" d="M1482.3878,-292.3901C1373.8261,-231.5166 1212.1702,-151.8963 1058.9738,-118.6251 957.9307,-96.6806 210.0356,-66.889 128.4608,-130.4251 92.6278,-158.3344 69.8842,-290.2247 60.3643,-357.9993"/>
<polygon fill="#000000" stroke="#000000" points="56.8968,-357.5238 59.0028,-367.9073 63.8317,-358.4769 56.8968,-357.5238"/>
<text text-anchor="middle" x="898.0025" y="-123.6251" font-family="Times,serif" font-size="14.00" fill="#000000">never, son</text>
</g>
<!-- unintelligible_screams_0xdeadb00b&#45;&gt;Graham_again_somehow -->
<g id="edge15" class="edge">
<title>unintelligible_screams_0xdeadb00b&#45;&gt;Graham_again_somehow</title>
<path fill="none" stroke="#000000" d="M1756.2559,-411.6943C1844.0447,-436.6938 1954.5065,-468.1499 2036.4235,-491.4774"/>
<polygon fill="#000000" stroke="#000000" points="2035.6922,-494.9082 2046.2684,-494.2809 2037.6094,-488.1759 2035.6922,-494.9082"/>
<text text-anchor="middle" x="1902.1167" y="-490.6251" font-family="Times,serif" font-size="14.00" fill="#000000">i would kill u if not for the laws of this land</text>
</g>
<!-- Tom&#45;&gt;Jack -->
<g id="edge16" class="edge">
<title>Tom&#45;&gt;Jack</title>
<path fill="none" stroke="#000000" d="M868.5703,-347.3187C833.1209,-344.8962 771.7564,-341.0676 719.0312,-339.6251 653.4368,-337.8306 190.3612,-317.8493 128.4608,-339.6251 114.2143,-344.6369 100.6904,-353.7195 89.2312,-363.2712"/>
<polygon fill="#000000" stroke="#000000" points="86.862,-360.6935 81.6442,-369.9145 91.4734,-365.96 86.862,-360.6935"/>
<text text-anchor="middle" x="423.746" y="-343.6251" font-family="Times,serif" font-size="14.00" fill="#000000">I deserve better than this. I could have paired up with anyone else for ICAR.</text>
</g>
<!-- Tom&#45;&gt;unintelligible_screams_0xdeadb00b -->
<g id="edge17" class="edge">
<title>Tom&#45;&gt;unintelligible_screams_0xdeadb00b</title>
<path fill="none" stroke="#000000" d="M927.2959,-350.2875C1014.4995,-352.8547 1277.0991,-360.5855 1450.3959,-365.6872"/>
<polygon fill="#000000" stroke="#000000" points="1450.5452,-369.193 1460.6438,-365.9889 1450.7512,-362.1961 1450.5452,-369.193"/>
<text text-anchor="middle" x="1259.9069" y="-368.6251" font-family="Times,serif" font-size="14.00" fill="#000000">...actually never mind</text>
</g>
<!-- Detlef&#45;&gt;Jack -->
<g id="edge18" class="edge">
<title>Detlef&#45;&gt;Jack</title>
<path fill="none" stroke="#000000" d="M862.8117,-264.9234C720.4444,-255.0904 191.7459,-221.4612 128.4608,-259.6251 94.1018,-280.3453 75.0399,-323.1583 65.0456,-355.7894"/>
<polygon fill="#000000" stroke="#000000" points="61.6378,-354.9753 62.2282,-365.5537 68.3634,-356.916 61.6378,-354.9753"/>
<text text-anchor="middle" x="423.746" y="-263.6251" font-family="Times,serif" font-size="14.00" fill="#000000">it&#39;s nice that you&#39;re indulging in some extracurricular activities but I DO have a gp2 to finish you know...</text>
</g>
<!-- Pooh&#45;&gt;Jack -->
<g id="edge19" class="edge">
<title>Pooh&#45;&gt;Jack</title>
<path fill="none" stroke="#000000" d="M863.2451,-174.218C729.2196,-154.9042 247.5401,-92.7843 128.4608,-178.6251 99.2969,-199.6486 75.1542,-298.4921 63.2413,-356.2193"/>
<polygon fill="#000000" stroke="#000000" points="59.7854,-355.651 61.2293,-366.147 66.6459,-357.0414 59.7854,-355.651"/>
<text text-anchor="middle" x="423.746" y="-183.6251" font-family="Times,serif" font-size="14.00" fill="#000000">&lt;immediately claws out eyeballs&gt;</text>
</g>
</g>
</svg>
