<?xml version="1.0" encoding="UTF-8" standalone="no"?>
<!DOCTYPE svg PUBLIC "-//W3C//DTD SVG 1.1//EN"
 "http://www.w3.org/Graphics/SVG/1.1/DTD/svg11.dtd">
<!-- Generated by graphviz version 2.40.1 (20161225.0304)
 -->
<!-- Title: academic_neural_net Pages: 1 -->
<svg width="720pt" height="221pt"
 viewBox="0.00 0.00 720.00 221.13" xmlns="http://www.w3.org/2000/svg" xmlns:xlink="http://www.w3.org/1999/xlink">
<g id="graph0" class="graph" transform="scale(.2634 .2634) rotate(0) translate(4 835.4309)">
<title>academic_neural_net</title>
<polygon fill="#ffffff" stroke="transparent" points="-4,4 -4,-835.4309 2729.1545,-835.4309 2729.1545,4 -4,4"/>
<!-- Sam -->
<g id="node1" class="node">
<title>Sam</title>
<ellipse fill="none" stroke="#000000" cx="28.2037" cy="-474.6309" rx="28.4088" ry="28.4088"/>
<text text-anchor="middle" x="28.2037" y="-470.4309" font-family="Times,serif" font-size="14.00" fill="#000000">Sam</text>
</g>
<!-- Jack -->
<g id="node2" class="node">
<title>Jack</title>
<polygon fill="none" stroke="#000000" points="574.0043,-487.0374 531.6353,-487.0374 518.5425,-527.1854 505.4498,-487.0374 463.0807,-487.0374 497.358,-462.2245 484.2653,-422.0764 518.5425,-446.8893 552.8198,-422.0764 539.727,-462.2245 574.0043,-487.0374"/>
<text text-anchor="middle" x="518.5425" y="-470.4309" font-family="Times,serif" font-size="14.00" fill="#000000">Jack</text>
</g>
<!-- Sam&#45;&gt;Jack -->
<g id="edge1" class="edge">
<title>Sam&#45;&gt;Jack</title>
<path fill="none" stroke="#000000" d="M56.6858,-474.6309C137.4261,-474.6309 368.5003,-474.6309 469.8753,-474.6309"/>
<polygon fill="#000000" stroke="#000000" points="470.1383,-478.131 480.1383,-474.6309 470.1383,-471.131 470.1383,-478.131"/>
<text text-anchor="middle" x="259.8597" y="-478.8309" font-family="Times,serif" font-size="14.00" fill="#000000">you wouldn&#39;t get this self help book because you&#39;re not gay. sorry</text>
</g>
<!-- Jack&#45;&gt;Sam -->
<g id="edge12" class="edge">
<title>Jack&#45;&gt;Sam</title>
<path fill="none" stroke="#000000" d="M492.8205,-465.4375C478.9472,-460.9625 461.413,-456.0732 445.3121,-453.8309 282.0412,-431.0933 235.5806,-419.2249 74.4073,-453.8309 70.5504,-454.6591 66.627,-455.8353 62.7787,-457.2123"/>
<polygon fill="#000000" stroke="#000000" points="61.4201,-453.9862 53.4482,-460.9647 64.032,-460.4806 61.4201,-453.9862"/>
<text text-anchor="middle" x="259.8597" y="-458.8309" font-family="Times,serif" font-size="14.00" fill="#000000">love 2 include u in all the friend groups</text>
</g>
<!-- Agathe -->
<g id="node3" class="node">
<title>Agathe</title>
<ellipse fill="none" stroke="#000000" cx="1361.3146" cy="-739.6309" rx="38.844" ry="38.844"/>
<text text-anchor="middle" x="1361.3146" y="-735.4309" font-family="Times,serif" font-size="14.00" fill="#000000">Agathe</text>
</g>
<!-- Jack&#45;&gt;Agathe -->
<g id="edge13" class="edge">
<title>Jack&#45;&gt;Agathe</title>
<path fill="none" stroke="#000000" d="M524.2229,-510.3507C534.684,-571.1211 558.9629,-690.5075 591.7729,-715.6309 813.1169,-885.1196 1184.5858,-794.3693 1314.6438,-754.9208"/>
<polygon fill="#000000" stroke="#000000" points="1315.781,-758.2329 1324.3102,-751.9476 1313.7231,-751.5422 1315.781,-758.2329"/>
<text text-anchor="middle" x="887.0581" y="-818.8309" font-family="Times,serif" font-size="14.00" fill="#000000">so there i was, knuckle&#45;deep in Gödel, Escher, and also Bach, when all of a sudden...</text>
</g>
<!-- Detlef -->
<g id="node4" class="node">
<title>Detlef</title>
<ellipse fill="none" stroke="#000000" cx="1361.3146" cy="-647.6309" rx="35.3276" ry="35.3276"/>
<text text-anchor="middle" x="1361.3146" y="-643.4309" font-family="Times,serif" font-size="14.00" fill="#000000">Detlef</text>
</g>
<!-- Jack&#45;&gt;Detlef -->
<g id="edge14" class="edge">
<title>Jack&#45;&gt;Detlef</title>
<path fill="none" stroke="#000000" d="M524.0291,-510.6834C531.8731,-548.3128 550.248,-605.5355 591.7729,-632.6309 622.1607,-652.4592 1155.0841,-649.4374 1315.8027,-648.0674"/>
<polygon fill="#000000" stroke="#000000" points="1315.8723,-651.567 1325.8414,-647.9798 1315.8112,-644.5672 1315.8723,-651.567"/>
<text text-anchor="middle" x="887.0581" y="-652.8309" font-family="Times,serif" font-size="14.00" fill="#000000">i can no longer bear to suck this gp2</text>
</g>
<!-- Pooh -->
<g id="node5" class="node">
<title>Pooh</title>
<ellipse fill="none" stroke="#000000" cx="1361.3146" cy="-563.6309" rx="30.7808" ry="30.7808"/>
<text text-anchor="middle" x="1361.3146" y="-559.4309" font-family="Times,serif" font-size="14.00" fill="#000000">Pooh</text>
</g>
<!-- Jack&#45;&gt;Pooh -->
<g id="edge15" class="edge">
<title>Jack&#45;&gt;Pooh</title>
<path fill="none" stroke="#000000" d="M529.777,-493.5433C542.231,-512.4737 564.2438,-540.4819 591.7729,-552.6309 658.3991,-582.0342 1169.6733,-569.334 1319.9209,-564.9181"/>
<polygon fill="#000000" stroke="#000000" points="1320.2123,-568.4111 1330.1038,-564.6152 1320.0041,-561.4142 1320.2123,-568.4111"/>
<text text-anchor="middle" x="887.0581" y="-575.8309" font-family="Times,serif" font-size="14.00" fill="#000000">such precious. much floof. abso &#45; FUUUUUUUUUCK</text>
</g>
<!-- Tom -->
<g id="node6" class="node">
<title>Tom</title>
<ellipse fill="none" stroke="#000000" cx="1361.3146" cy="-485.6309" rx="29.0548" ry="29.0548"/>
<text text-anchor="middle" x="1361.3146" y="-481.4309" font-family="Times,serif" font-size="14.00" fill="#000000">Tom</text>
</g>
<!-- Jack&#45;&gt;Tom -->
<g id="edge16" class="edge">
<title>Jack&#45;&gt;Tom</title>
<path fill="none" stroke="#000000" d="M557.5009,-475.1394C698.2167,-476.9761 1179.361,-483.2561 1321.48,-485.111"/>
<polygon fill="#000000" stroke="#000000" points="1321.8403,-488.6159 1331.8852,-485.2468 1321.9318,-481.6165 1321.8403,-488.6159"/>
<text text-anchor="middle" x="887.0581" y="-487.8309" font-family="Times,serif" font-size="14.00" fill="#000000">thank u 4 being normal despite doing the same degree</text>
</g>
<!-- unintelligible_screams_0xdeadb00b -->
<g id="node7" class="node">
<title>unintelligible_screams_0xdeadb00b</title>
<ellipse fill="none" stroke="#000000" cx="2074.6465" cy="-399.6309" rx="150.4888" ry="150.4888"/>
<text text-anchor="middle" x="2074.6465" y="-395.4309" font-family="Times,serif" font-size="14.00" fill="#000000">unintelligible_screams_0xdeadb00b</text>
</g>
<!-- Jack&#45;&gt;unintelligible_screams_0xdeadb00b -->
<g id="edge19" class="edge">
<title>Jack&#45;&gt;unintelligible_screams_0xdeadb00b</title>
<path fill="none" stroke="#000000" d="M540.8169,-459.2445C554.7742,-450.5239 573.5223,-440.4238 591.7729,-435.6309 623.3586,-427.3361 1536.3918,-409.5753 1913.7957,-402.5643"/>
<polygon fill="#000000" stroke="#000000" points="1914.0485,-406.0603 1923.9818,-402.3753 1913.9186,-399.0615 1914.0485,-406.0603"/>
<text text-anchor="middle" x="1361.3146" y="-421.8309" font-family="Times,serif" font-size="14.00" fill="#000000">oh god fuck why are you like this and when will you stop</text>
</g>
<!-- Graham_unfortunately -->
<g id="node8" class="node">
<title>Graham_unfortunately</title>
<ellipse fill="none" stroke="#000000" cx="1361.3146" cy="-233.6309" rx="98.9801" ry="98.9801"/>
<text text-anchor="middle" x="1361.3146" y="-229.4309" font-family="Times,serif" font-size="14.00" fill="#000000">Graham_unfortunately</text>
</g>
<!-- Jack&#45;&gt;Graham_unfortunately -->
<g id="edge17" class="edge">
<title>Jack&#45;&gt;Graham_unfortunately</title>
<path fill="none" stroke="#000000" d="M524.3055,-442.5886C535.1565,-386.236 560.3778,-273.1311 591.7729,-249.8309 788.0591,-104.1555 1096.7338,-158.3885 1256.9716,-201.2236"/>
<polygon fill="#000000" stroke="#000000" points="1256.2715,-204.66 1266.8388,-203.8972 1258.1022,-197.9036 1256.2715,-204.66"/>
<text text-anchor="middle" x="887.0581" y="-254.8309" font-family="Times,serif" font-size="14.00" fill="#000000">an evening of graph lectures! what could possibly go wrong?!</text>
</g>
<!-- Graham_again_somehow -->
<g id="node9" class="node">
<title>Graham_again_somehow</title>
<ellipse fill="none" stroke="#000000" cx="2615.4356" cy="-129.6309" rx="109.9382" ry="109.9382"/>
<text text-anchor="middle" x="2615.4356" y="-125.4309" font-family="Times,serif" font-size="14.00" fill="#000000">Graham_again_somehow</text>
</g>
<!-- Jack&#45;&gt;Graham_again_somehow -->
<g id="edge18" class="edge">
<title>Jack&#45;&gt;Graham_again_somehow</title>
<path fill="none" stroke="#000000" d="M520.7598,-445.2474C526.8784,-372.8991 546.6268,-189.2936 591.7729,-151.6309 665.0344,-90.5135 2071.1633,-117.2799 2495.3253,-126.7874"/>
<polygon fill="#000000" stroke="#000000" points="2495.3887,-130.2896 2505.4649,-127.0156 2495.5462,-123.2914 2495.3887,-130.2896"/>
<text text-anchor="middle" x="1723.219" y="-120.8309" font-family="Times,serif" font-size="14.00" fill="#000000">...i deserve this. i chose this.</text>
</g>
<!-- Agathe&#45;&gt;Jack -->
<g id="edge2" class="edge">
<title>Agathe&#45;&gt;Jack</title>
<path fill="none" stroke="#000000" d="M1323.6137,-729.0134C1287.6363,-719.3648 1231.7519,-705.6311 1182.3433,-698.8309 1117.2578,-689.8732 644.8411,-708.3626 591.7729,-669.6309 566.2368,-650.9935 541.4226,-566.8532 528.256,-515.3786"/>
<polygon fill="#000000" stroke="#000000" points="531.6167,-514.3912 525.7812,-505.5483 524.8286,-516.1002 531.6167,-514.3912"/>
<text text-anchor="middle" x="887.0581" y="-702.8309" font-family="Times,serif" font-size="14.00" fill="#000000">is someone cutting octonions? ah non, c’est rien, je suis juste en train de pleurer.</text>
</g>
<!-- Detlef&#45;&gt;Jack -->
<g id="edge3" class="edge">
<title>Detlef&#45;&gt;Jack</title>
<path fill="none" stroke="#000000" d="M1326.8713,-640.067C1290.981,-632.5261 1233.0151,-621.3021 1182.3433,-615.8309 1117.0533,-608.7814 648.522,-625.6769 591.7729,-592.6309 561.2068,-574.8317 541.6245,-538.6817 530.475,-511.0583"/>
<polygon fill="#000000" stroke="#000000" points="533.7293,-509.7693 526.8788,-501.6872 527.194,-512.2773 533.7293,-509.7693"/>
<text text-anchor="middle" x="887.0581" y="-620.8309" font-family="Times,serif" font-size="14.00" fill="#000000">it&#39;s nice that you&#39;re indulging in some extracurricular activities but I DO have a gp2 to finish you know...</text>
</g>
<!-- Pooh&#45;&gt;Jack -->
<g id="edge4" class="edge">
<title>Pooh&#45;&gt;Jack</title>
<path fill="none" stroke="#000000" d="M1330.7187,-557.9107C1295.1826,-551.4924 1234.7305,-541.2693 1182.3433,-535.8309 920.9065,-508.6908 848.2338,-562.195 591.7729,-504.6309 578.4449,-501.6394 564.4239,-496.4466 552.2585,-491.2136"/>
<polygon fill="#000000" stroke="#000000" points="553.5062,-487.9375 542.9486,-487.0495 550.648,-494.3275 553.5062,-487.9375"/>
<text text-anchor="middle" x="887.0581" y="-540.8309" font-family="Times,serif" font-size="14.00" fill="#000000">&lt;immediately claws out eyeballs&gt;</text>
</g>
<!-- Tom&#45;&gt;Jack -->
<g id="edge6" class="edge">
<title>Tom&#45;&gt;Jack</title>
<path fill="none" stroke="#000000" d="M1332.6702,-479.3601C1297.4829,-472.0057 1235.8668,-460.2565 1182.3433,-455.8309 920.7603,-434.2021 852.1795,-422.938 591.7729,-455.8309 579.5858,-457.3703 566.5225,-460.2967 554.8524,-463.3902"/>
<polygon fill="#000000" stroke="#000000" points="553.7123,-460.0742 545.0126,-466.1211 555.5844,-466.8193 553.7123,-460.0742"/>
<text text-anchor="middle" x="887.0581" y="-460.8309" font-family="Times,serif" font-size="14.00" fill="#000000">I deserve better than this. I could have paired up with anyone else for ICAR.</text>
</g>
<!-- Tom&#45;&gt;unintelligible_screams_0xdeadb00b -->
<g id="edge5" class="edge">
<title>Tom&#45;&gt;unintelligible_screams_0xdeadb00b</title>
<path fill="none" stroke="#000000" d="M1390.6985,-484.167C1472.656,-479.8188 1710.592,-465.3876 1906.1521,-435.6309 1909.8441,-435.0692 1913.5766,-434.4766 1917.3371,-433.8575"/>
<polygon fill="#000000" stroke="#000000" points="1918.0735,-437.2827 1927.3475,-432.1599 1916.9031,-430.3812 1918.0735,-437.2827"/>
<text text-anchor="middle" x="1723.219" y="-478.8309" font-family="Times,serif" font-size="14.00" fill="#000000">...actually never mind</text>
</g>
<!-- unintelligible_screams_0xdeadb00b&#45;&gt;Jack -->
<g id="edge11" class="edge">
<title>unintelligible_screams_0xdeadb00b&#45;&gt;Jack</title>
<path fill="none" stroke="#000000" d="M1924.0476,-393.8146C1813.0098,-389.8271 1658.2656,-384.8984 1522.2859,-382.8309 1315.4557,-379.6863 783.0262,-328.8223 591.7729,-407.6309 578.0513,-413.2851 565.2739,-422.7181 554.3584,-432.7474"/>
<polygon fill="#000000" stroke="#000000" points="551.8724,-430.2825 547.1103,-439.7468 556.735,-435.3179 551.8724,-430.2825"/>
<text text-anchor="middle" x="1361.3146" y="-387.8309" font-family="Times,serif" font-size="14.00" fill="#000000">never, son</text>
</g>
<!-- unintelligible_screams_0xdeadb00b&#45;&gt;Graham_again_somehow -->
<g id="edge10" class="edge">
<title>unintelligible_screams_0xdeadb00b&#45;&gt;Graham_again_somehow</title>
<path fill="none" stroke="#000000" d="M2212.7074,-339.5184C2293.8329,-303.1131 2397.7872,-254.577 2487.7167,-206.6309 2496.0255,-202.2011 2504.5512,-197.4759 2513.0643,-192.6287"/>
<polygon fill="#000000" stroke="#000000" points="2514.994,-195.5566 2521.9217,-187.5405 2511.5072,-189.4868 2514.994,-195.5566"/>
<text text-anchor="middle" x="2365.4288" y="-329.8309" font-family="Times,serif" font-size="14.00" fill="#000000">i would kill u if not for the laws of this land</text>
</g>
<!-- Graham_unfortunately&#45;&gt;Jack -->
<g id="edge8" class="edge">
<title>Graham_unfortunately&#45;&gt;Jack</title>
<path fill="none" stroke="#000000" d="M1264.5456,-255.3054C1237.9885,-260.7973 1209.1308,-266.3469 1182.3433,-270.6309 1051.916,-291.4897 701.0623,-263.654 591.7729,-337.8309 559.8939,-359.4679 540.7784,-399.6268 530.1151,-430.8587"/>
<polygon fill="#000000" stroke="#000000" points="526.6953,-430.0586 526.9445,-440.6505 533.3549,-432.215 526.6953,-430.0586"/>
<text text-anchor="middle" x="887.0581" y="-342.8309" font-family="Times,serif" font-size="14.00" fill="#000000">gbkshakegooseshitemotherfukerdropkickbooooooitaxevasiongraphgrammar</text>
</g>
<!-- Graham_unfortunately&#45;&gt;Graham_again_somehow -->
<g id="edge7" class="edge">
<title>Graham_unfortunately&#45;&gt;Graham_again_somehow</title>
<path fill="none" stroke="#000000" d="M1459.985,-225.4485C1687.7057,-206.5644 2249.2813,-159.9949 2495.9611,-139.5386"/>
<polygon fill="#000000" stroke="#000000" points="2496.3594,-143.0176 2506.0359,-138.7031 2495.7808,-136.0416 2496.3594,-143.0176"/>
<text text-anchor="middle" x="2074.6465" y="-191.8309" font-family="Times,serif" font-size="14.00" fill="#000000">mmmm, mirchiz...</text>
</g>
<!-- Graham_again_somehow&#45;&gt;Jack -->
<g id="edge9" class="edge">
<title>Graham_again_somehow&#45;&gt;Jack</title>
<path fill="none" stroke="#000000" d="M2510.2998,-97.0407C2502.7034,-95.3441 2495.1208,-93.8433 2487.7167,-92.6309 2232.4085,-50.8271 2164.8014,-73.3433 1906.1521,-67.8309 1614.0822,-61.6063 814.5007,96.4085 591.7729,-92.6309 539.9507,-136.6149 524.3471,-347.6552 520.0455,-435.808"/>
<polygon fill="#000000" stroke="#000000" points="516.5432,-435.778 519.5753,-445.9297 523.5357,-436.1029 516.5432,-435.778"/>
<text text-anchor="middle" x="1723.219" y="-72.8309" font-family="Times,serif" font-size="14.00" fill="#000000">pls turn to page 9928424 of my invoice for your share of the bills</text>
</g>
</g>
</svg>
