<?xml version="1.0" encoding="UTF-8" standalone="no"?>
<!DOCTYPE svg PUBLIC "-//W3C//DTD SVG 1.1//EN"
 "http://www.w3.org/Graphics/SVG/1.1/DTD/svg11.dtd">
<!-- Generated by graphviz version 2.40.1 (20161225.0304)
 -->
<!-- Title: finite_state_machine Pages: 1 -->
<svg width="1440pt" height="316pt"
 viewBox="0.00 0.00 1440.00 316.11" xmlns="http://www.w3.org/2000/svg" xmlns:xlink="http://www.w3.org/1999/xlink">
<g id="graph0" class="graph" transform="scale(.3218 .3218) rotate(0) translate(4 978.2944)">
<title>finite_state_machine</title>
<polygon fill="#ffffff" stroke="transparent" points="-4,4 -4,-978.2944 4470.7521,-978.2944 4470.7521,4 -4,4"/>
<!-- Sam -->
<g id="node1" class="node">
<title>Sam</title>
<ellipse fill="none" stroke="#000000" cx="28.2037" cy="-646.4944" rx="28.4088" ry="28.4088"/>
<text text-anchor="middle" x="28.2037" y="-642.2944" font-family="Times,serif" font-size="14.00" fill="#000000">Sam</text>
</g>
<!-- Jack -->
<g id="node9" class="node">
<title>Jack</title>
<ellipse fill="none" stroke="#000000" cx="345.4401" cy="-646.4944" rx="28.3649" ry="28.3649"/>
<ellipse fill="none" stroke="#000000" cx="345.4401" cy="-646.4944" rx="32.3892" ry="32.3892"/>
<text text-anchor="middle" x="345.4401" y="-642.2944" font-family="Times,serif" font-size="14.00" fill="#000000">Jack</text>
</g>
<!-- Sam&#45;&gt;Jack -->
<g id="edge9" class="edge">
<title>Sam&#45;&gt;Jack</title>
<path fill="none" stroke="#000000" d="M56.6355,-646.4944C112.6468,-646.4944 237.5146,-646.4944 303.1957,-646.4944"/>
<polygon fill="#000000" stroke="#000000" points="303.2093,-649.9945 313.2093,-646.4944 303.2092,-642.9945 303.2093,-649.9945"/>
<text text-anchor="middle" x="184.8267" y="-650.6944" font-family="Times,serif" font-size="14.00" fill="#000000">i could kill god for this</text>
</g>
<!-- Agathe -->
<g id="node2" class="node">
<title>Agathe</title>
<ellipse fill="none" stroke="#000000" cx="3847.1054" cy="-922.4944" rx="38.844" ry="38.844"/>
<text text-anchor="middle" x="3847.1054" y="-918.2944" font-family="Times,serif" font-size="14.00" fill="#000000">Agathe</text>
</g>
<!-- Agathe&#45;&gt;Jack -->
<g id="edge10" class="edge">
<title>Agathe&#45;&gt;Jack</title>
<path fill="none" stroke="#000000" d="M3809.9372,-909.8787C3774.1092,-898.4132 3718.1206,-882.3099 3668.1341,-875.6944 3623.0744,-869.7309 431.2881,-879.6854 395.6341,-851.4944 370.4546,-831.5854 356.2296,-742.9036 349.7589,-688.9117"/>
<polygon fill="#000000" stroke="#000000" points="353.2305,-688.4636 348.6036,-678.9325 346.2769,-689.2687 353.2305,-688.4636"/>
<text text-anchor="middle" x="2031.8841" y="-879.6944" font-family="Times,serif" font-size="14.00" fill="#000000">is someone cutting octonions? ah non, c’est rien, je suis juste en train de pleurer.</text>
</g>
<!-- Detlef -->
<g id="node3" class="node">
<title>Detlef</title>
<ellipse fill="none" stroke="#000000" cx="3847.1054" cy="-830.4944" rx="35.3276" ry="35.3276"/>
<text text-anchor="middle" x="3847.1054" y="-826.2944" font-family="Times,serif" font-size="14.00" fill="#000000">Detlef</text>
</g>
<!-- Detlef&#45;&gt;Jack -->
<g id="edge11" class="edge">
<title>Detlef&#45;&gt;Jack</title>
<path fill="none" stroke="#000000" d="M3813.5673,-819.7882C3777.9298,-809.0047 3719.7219,-793.0768 3668.1341,-786.6944 3623.0258,-781.1136 433.3921,-791.7974 395.6341,-766.4944 369.8506,-749.2159 357.2845,-715.9015 351.1753,-688.7503"/>
<polygon fill="#000000" stroke="#000000" points="354.5534,-687.7974 349.1359,-678.6924 347.693,-689.1885 354.5534,-687.7974"/>
<text text-anchor="middle" x="2031.8841" y="-790.6944" font-family="Times,serif" font-size="14.00" fill="#000000">it&#39;s nice that you&#39;re indulging in some extracurricular activities but I DO have a gp2 to finish you know...</text>
</g>
<!-- Pooh -->
<g id="node4" class="node">
<title>Pooh</title>
<ellipse fill="none" stroke="#000000" cx="3847.1054" cy="-746.4944" rx="30.7808" ry="30.7808"/>
<text text-anchor="middle" x="3847.1054" y="-742.2944" font-family="Times,serif" font-size="14.00" fill="#000000">Pooh</text>
</g>
<!-- Pooh&#45;&gt;Jack -->
<g id="edge12" class="edge">
<title>Pooh&#45;&gt;Jack</title>
<path fill="none" stroke="#000000" d="M3817.0563,-738.425C3773.9909,-727.0128 3696.7584,-707.1546 3668.1341,-703.6944 3577.8868,-692.7848 481.7233,-713.6877 395.6341,-684.4944 389.0969,-682.2776 382.7302,-678.8418 376.8479,-674.9233"/>
<polygon fill="#000000" stroke="#000000" points="378.7558,-671.983 368.6125,-668.9228 374.6336,-677.6405 378.7558,-671.983"/>
<text text-anchor="middle" x="2031.8841" y="-707.6944" font-family="Times,serif" font-size="14.00" fill="#000000">&lt;immediately claws out eyeballs&gt;</text>
</g>
<!-- Tom -->
<g id="node5" class="node">
<title>Tom</title>
<ellipse fill="none" stroke="#000000" cx="3847.1054" cy="-668.4944" rx="29.0548" ry="29.0548"/>
<text text-anchor="middle" x="3847.1054" y="-664.2944" font-family="Times,serif" font-size="14.00" fill="#000000">Tom</text>
</g>
<!-- unintelligible_screams_0xdeadb00b -->
<g id="node8" class="node">
<title>unintelligible_screams_0xdeadb00b</title>
<ellipse fill="none" stroke="#000000" cx="4316.2577" cy="-150.4944" rx="150.4888" ry="150.4888"/>
<text text-anchor="middle" x="4316.2577" y="-146.2944" font-family="Times,serif" font-size="14.00" fill="#000000">unintelligible_screams_0xdeadb00b</text>
</g>
<!-- Tom&#45;&gt;unintelligible_screams_0xdeadb00b -->
<g id="edge14" class="edge">
<title>Tom&#45;&gt;unintelligible_screams_0xdeadb00b</title>
<path fill="none" stroke="#000000" d="M3876.5186,-668.0247C3911.002,-666.1102 3968.4667,-658.5296 4008.0767,-630.4944 4123.83,-548.5665 4206.5148,-408.1013 4256.907,-300.2238"/>
<polygon fill="#000000" stroke="#000000" points="4260.209,-301.4221 4261.2308,-290.8766 4253.8558,-298.4831 4260.209,-301.4221"/>
<text text-anchor="middle" x="4086.92" y="-616.6944" font-family="Times,serif" font-size="14.00" fill="#000000">...actually never mind</text>
</g>
<!-- Tom&#45;&gt;Jack -->
<g id="edge13" class="edge">
<title>Tom&#45;&gt;Jack</title>
<path fill="none" stroke="#000000" d="M3818.3025,-661.6784C3768.66,-649.9432 3671.8982,-627.1281 3668.1341,-626.6944 3487.5236,-605.883 574.2409,-592.7401 395.6341,-626.6944 391.9184,-627.4008 388.1263,-628.3768 384.3742,-629.5199"/>
<polygon fill="#000000" stroke="#000000" points="382.9402,-626.3115 374.6158,-632.8655 385.2104,-632.9332 382.9402,-626.3115"/>
<text text-anchor="middle" x="2031.8841" y="-631.6944" font-family="Times,serif" font-size="14.00" fill="#000000">I deserve better than this. I could have paired up with anyone else for ICAR.</text>
</g>
<!-- Graham_unfortunately -->
<g id="node6" class="node">
<title>Graham_unfortunately</title>
<ellipse fill="none" stroke="#000000" cx="3847.1054" cy="-522.4944" rx="98.9801" ry="98.9801"/>
<text text-anchor="middle" x="3847.1054" y="-518.2944" font-family="Times,serif" font-size="14.00" fill="#000000">Graham_unfortunately</text>
</g>
<!-- Graham_unfortunately&#45;&gt;Jack -->
<g id="edge17" class="edge">
<title>Graham_unfortunately&#45;&gt;Jack</title>
<path fill="none" stroke="#000000" d="M3747.9679,-519.6162C3197.7511,-504.0243 538.9197,-433.812 395.6341,-528.6944 370.3235,-545.4548 357.7332,-577.8527 351.4945,-604.4366"/>
<polygon fill="#000000" stroke="#000000" points="348.0545,-603.7868 349.4012,-614.2957 354.9019,-605.2407 348.0545,-603.7868"/>
<text text-anchor="middle" x="2031.8841" y="-533.6944" font-family="Times,serif" font-size="14.00" fill="#000000">01100100 01110010 01101111 01110000 01101011 01101001 01100011 01101011 00100000 01100111 01101111 01101111 01110011 01100101 00100000 01100110 01100001 01110100 01100110 01110101 01101011 00100000 01100111 01100010 01101011 01110011 01101000 01100001 01101011 01100101 00100000 01100011 01110101 01110010 01110010 01111001 00100000 01110000 01101100 01100001 01100011 01100101 00100000 01101101 01101111 01110100 01101000 01100101 01110010 01100110 01110101 01100011 01101011 01100101 01110010 </text>
</g>
<!-- Graham_again_somehow -->
<g id="node7" class="node">
<title>Graham_again_somehow</title>
<ellipse fill="none" stroke="#000000" cx="3847.1054" cy="-295.4944" rx="109.9382" ry="109.9382"/>
<text text-anchor="middle" x="3847.1054" y="-291.2944" font-family="Times,serif" font-size="14.00" fill="#000000">Graham_again_somehow</text>
</g>
<!-- Graham_again_somehow&#45;&gt;Jack -->
<g id="edge15" class="edge">
<title>Graham_again_somehow&#45;&gt;Jack</title>
<path fill="none" stroke="#000000" d="M3737.4348,-288.4717C3177.4798,-253.6868 653.7008,-110.2133 395.6341,-332.6944 375.3135,-350.2129 356.8942,-522.2792 349.2188,-603.9189"/>
<polygon fill="#000000" stroke="#000000" points="345.6903,-604.0655 348.2508,-614.3463 352.6603,-604.7127 345.6903,-604.0655"/>
<text text-anchor="middle" x="2031.8841" y="-337.6944" font-family="Times,serif" font-size="14.00" fill="#000000">pls turn to page 9928424 of my invoice for your share of the bills</text>
</g>
<!-- unintelligible_screams_0xdeadb00b&#45;&gt;Jack -->
<g id="edge16" class="edge">
<title>unintelligible_screams_0xdeadb00b&#45;&gt;Jack</title>
<path fill="none" stroke="#000000" d="M4166.8166,-131.3669C4116.4768,-125.7836 4059.9264,-120.4458 4008.0767,-117.6944 3865.1922,-110.1121 3829.2197,-117.6335 3686.1341,-117.6944 3320.5229,-117.8499 666.0564,125.5613 395.6341,-120.4944 360.1093,-152.8182 349.1162,-484.2854 346.2921,-603.8148"/>
<polygon fill="#000000" stroke="#000000" points="342.7878,-603.9668 346.0583,-614.0442 349.786,-604.1268 342.7878,-603.9668"/>
<text text-anchor="middle" x="3847.1054" y="-122.6944" font-family="Times,serif" font-size="14.00" fill="#000000">never, son</text>
</g>
<!-- Jack&#45;&gt;Sam -->
<g id="edge1" class="edge">
<title>Jack&#45;&gt;Sam</title>
<path fill="none" stroke="#000000" d="M315.9451,-633.4552C309.2651,-631.0669 302.1134,-628.9383 295.2461,-627.6944 198.667,-610.2011 170.7315,-608.8477 74.4073,-627.6944 70.705,-628.4188 66.9248,-629.441 63.2004,-630.6388"/>
<polygon fill="#000000" stroke="#000000" points="61.7706,-627.4342 53.564,-634.1351 64.1582,-634.0145 61.7706,-627.4342"/>
<text text-anchor="middle" x="184.8267" y="-632.6944" font-family="Times,serif" font-size="14.00" fill="#000000">love 2 include u in all the friend groups</text>
</g>
<!-- Jack&#45;&gt;Agathe -->
<g id="edge2" class="edge">
<title>Jack&#45;&gt;Agathe</title>
<path fill="none" stroke="#000000" d="M347.0484,-679.0463C350.8292,-740.35 362.6041,-869.2283 395.6341,-896.4944 532.8345,-1009.7524 3386.4845,-935.2309 3797.8662,-923.8787"/>
<polygon fill="#000000" stroke="#000000" points="3798.0559,-927.3749 3807.9552,-923.5995 3797.8622,-920.3776 3798.0559,-927.3749"/>
<text text-anchor="middle" x="2031.8841" y="-961.6944" font-family="Times,serif" font-size="14.00" fill="#000000">so there i was, knuckle&#45;deep in Gödel, Escher, and also Bach, when all of a sudden...</text>
</g>
<!-- Jack&#45;&gt;Detlef -->
<g id="edge3" class="edge">
<title>Jack&#45;&gt;Detlef</title>
<path fill="none" stroke="#000000" d="M350.815,-678.2626C358.6989,-720.6077 374.7553,-792.0262 395.6341,-807.4944 431.5308,-834.0886 3398.0519,-831.0903 3801.794,-830.5589"/>
<polygon fill="#000000" stroke="#000000" points="3801.9304,-834.0588 3811.9257,-830.5453 3801.921,-827.0588 3801.9304,-834.0588"/>
<text text-anchor="middle" x="2031.8841" y="-834.6944" font-family="Times,serif" font-size="14.00" fill="#000000">i can no longer bear to suck this gp2</text>
</g>
<!-- Jack&#45;&gt;Pooh -->
<g id="edge4" class="edge">
<title>Jack&#45;&gt;Pooh</title>
<path fill="none" stroke="#000000" d="M356.433,-676.8542C364.4382,-694.1445 377.1485,-714.3311 395.6341,-724.4944 434.9152,-746.0909 3418.685,-746.5347 3805.865,-746.5013"/>
<polygon fill="#000000" stroke="#000000" points="3806.0547,-750.0014 3816.0543,-746.5003 3806.0539,-743.0014 3806.0547,-750.0014"/>
<text text-anchor="middle" x="2031.8841" y="-749.6944" font-family="Times,serif" font-size="14.00" fill="#000000">such precious. much floof. abso &#45; FUUUUUUUUUCK</text>
</g>
<!-- Jack&#45;&gt;Tom -->
<g id="edge5" class="edge">
<title>Jack&#45;&gt;Tom</title>
<path fill="none" stroke="#000000" d="M377.8692,-646.6981C707.4617,-648.7689 3445.8252,-665.9732 3807.6824,-668.2467"/>
<polygon fill="#000000" stroke="#000000" points="3807.6684,-671.7466 3817.6903,-668.3096 3807.7125,-664.7467 3807.6684,-671.7466"/>
<text text-anchor="middle" x="2031.8841" y="-671.6944" font-family="Times,serif" font-size="14.00" fill="#000000">thank u 4 being normal</text>
</g>
<!-- Jack&#45;&gt;Graham_unfortunately -->
<g id="edge7" class="edge">
<title>Jack&#45;&gt;Graham_unfortunately</title>
<path fill="none" stroke="#000000" d="M360.9848,-618.2934C369.4588,-605.8938 381.1849,-592.6005 395.6341,-585.6944 477.6552,-546.4914 3577.5194,-556.7953 3668.1341,-549.4944 3691.2925,-547.6285 3716.0028,-544.5882 3739.4368,-541.2075"/>
<polygon fill="#000000" stroke="#000000" points="3740.0107,-544.6608 3749.3936,-539.7402 3738.9901,-537.7356 3740.0107,-544.6608"/>
<text text-anchor="middle" x="2031.8841" y="-590.6944" font-family="Times,serif" font-size="14.00" fill="#000000">an evening of graph lectures! what could possibly go wrong?!</text>
</g>
<!-- Jack&#45;&gt;Graham_again_somehow -->
<g id="edge8" class="edge">
<title>Jack&#45;&gt;Graham_again_somehow</title>
<path fill="none" stroke="#000000" d="M349.4834,-614.2455C356.2534,-566.0365 371.557,-478.784 395.6341,-459.6944 538.1709,-346.684 3488.9456,-384.7918 3668.1341,-353.4944 3689.9957,-349.676 3712.8599,-343.7988 3734.6546,-337.2246"/>
<polygon fill="#000000" stroke="#000000" points="3735.7287,-340.5561 3744.2533,-334.2647 3733.6659,-333.8669 3735.7287,-340.5561"/>
<text text-anchor="middle" x="2031.8841" y="-464.6944" font-family="Times,serif" font-size="14.00" fill="#000000">...i deserve this. i chose this.</text>
</g>
<!-- Jack&#45;&gt;unintelligible_screams_0xdeadb00b -->
<g id="edge6" class="edge">
<title>Jack&#45;&gt;unintelligible_screams_0xdeadb00b</title>
<path fill="none" stroke="#000000" d="M346.7223,-614.1227C350.8853,-517.269 365.5292,-234.7489 395.6341,-207.4944 537.009,-79.5051 3435.6725,-131.9269 4155.5311,-146.9705"/>
<polygon fill="#000000" stroke="#000000" points="4155.6402,-150.4734 4165.7113,-147.1838 4155.7869,-143.475 4155.6402,-150.4734"/>
<text text-anchor="middle" x="3847.1054" y="-148.6944" font-family="Times,serif" font-size="14.00" fill="#000000">oh god fuck why are you like this and when will you stop</text>
</g>
</g>
</svg>
