<?xml version="1.0" encoding="UTF-8" standalone="no"?>
<!DOCTYPE svg PUBLIC "-//W3C//DTD SVG 1.1//EN"
 "http://www.w3.org/Graphics/SVG/1.1/DTD/svg11.dtd">
<!-- Generated by graphviz version 2.40.1 (20161225.0304)
 -->
<!-- Title: academic_neural_net Pages: 1 -->
<svg width="720pt" height="234pt"
 viewBox="0.00 0.00 720.00 233.98" xmlns="http://www.w3.org/2000/svg" xmlns:xlink="http://www.w3.org/1999/xlink">
<g id="graph0" class="graph" transform="scale(.2787 .2787) rotate(0) translate(4 835.4309)">
<title>academic_neural_net</title>
<polygon fill="#ffffff" stroke="transparent" points="-4,4 -4,-835.4309 2579.0885,-835.4309 2579.0885,4 -4,4"/>
<!-- Sam -->
<g id="node1" class="node">
<title>Sam</title>
<ellipse fill="none" stroke="#000000" cx="28.2037" cy="-474.6309" rx="28.4088" ry="28.4088"/>
<text text-anchor="middle" x="28.2037" y="-470.4309" font-family="Times,serif" font-size="14.00" fill="#000000">Sam</text>
</g>
<!-- Jack -->
<g id="node2" class="node">
<title>Jack</title>
<polygon fill="none" stroke="#000000" points="423.9383,-487.0374 381.5693,-487.0374 368.4765,-527.1854 355.3838,-487.0374 313.0147,-487.0374 347.292,-462.2245 334.1993,-422.0764 368.4765,-446.8893 402.7538,-422.0764 389.661,-462.2245 423.9383,-487.0374"/>
<text text-anchor="middle" x="368.4765" y="-470.4309" font-family="Times,serif" font-size="14.00" fill="#000000">Jack</text>
</g>
<!-- Sam&#45;&gt;Jack -->
<g id="edge1" class="edge">
<title>Sam&#45;&gt;Jack</title>
<path fill="none" stroke="#000000" d="M56.6299,-474.6309C114.7861,-474.6309 247.9287,-474.6309 319.9997,-474.6309"/>
<polygon fill="#000000" stroke="#000000" points="320.1739,-478.131 330.1738,-474.6309 320.1738,-471.131 320.1739,-478.131"/>
<text text-anchor="middle" x="184.8267" y="-478.8309" font-family="Times,serif" font-size="14.00" fill="#000000">i could kill god for this</text>
</g>
<!-- Jack&#45;&gt;Sam -->
<g id="edge12" class="edge">
<title>Jack&#45;&gt;Sam</title>
<path fill="none" stroke="#000000" d="M342.7545,-465.4375C328.8812,-460.9625 311.347,-456.0732 295.2461,-453.8309 198.0337,-440.2928 170.3708,-433.2263 74.4073,-453.8309 70.5504,-454.6591 66.627,-455.8353 62.7787,-457.2123"/>
<polygon fill="#000000" stroke="#000000" points="61.4201,-453.9862 53.4482,-460.9647 64.032,-460.4806 61.4201,-453.9862"/>
<text text-anchor="middle" x="184.8267" y="-458.8309" font-family="Times,serif" font-size="14.00" fill="#000000">love 2 include u in all the friend groups</text>
</g>
<!-- Agathe -->
<g id="node3" class="node">
<title>Agathe</title>
<ellipse fill="none" stroke="#000000" cx="1211.2486" cy="-739.6309" rx="38.844" ry="38.844"/>
<text text-anchor="middle" x="1211.2486" y="-735.4309" font-family="Times,serif" font-size="14.00" fill="#000000">Agathe</text>
</g>
<!-- Jack&#45;&gt;Agathe -->
<g id="edge13" class="edge">
<title>Jack&#45;&gt;Agathe</title>
<path fill="none" stroke="#000000" d="M374.1569,-510.3507C384.618,-571.1211 408.8969,-690.5075 441.7069,-715.6309 663.0509,-885.1196 1034.5198,-794.3693 1164.5778,-754.9208"/>
<polygon fill="#000000" stroke="#000000" points="1165.715,-758.2329 1174.2442,-751.9476 1163.6571,-751.5422 1165.715,-758.2329"/>
<text text-anchor="middle" x="736.9921" y="-818.8309" font-family="Times,serif" font-size="14.00" fill="#000000">so there i was, knuckle&#45;deep in Gödel, Escher, and also Bach, when all of a sudden...</text>
</g>
<!-- Detlef -->
<g id="node4" class="node">
<title>Detlef</title>
<ellipse fill="none" stroke="#000000" cx="1211.2486" cy="-647.6309" rx="35.3276" ry="35.3276"/>
<text text-anchor="middle" x="1211.2486" y="-643.4309" font-family="Times,serif" font-size="14.00" fill="#000000">Detlef</text>
</g>
<!-- Jack&#45;&gt;Detlef -->
<g id="edge14" class="edge">
<title>Jack&#45;&gt;Detlef</title>
<path fill="none" stroke="#000000" d="M373.9631,-510.6834C381.8071,-548.3128 400.182,-605.5355 441.7069,-632.6309 472.0947,-652.4592 1005.0181,-649.4374 1165.7367,-648.0674"/>
<polygon fill="#000000" stroke="#000000" points="1165.8063,-651.567 1175.7754,-647.9798 1165.7452,-644.5672 1165.8063,-651.567"/>
<text text-anchor="middle" x="736.9921" y="-652.8309" font-family="Times,serif" font-size="14.00" fill="#000000">i can no longer bear to suck this gp2</text>
</g>
<!-- Pooh -->
<g id="node5" class="node">
<title>Pooh</title>
<ellipse fill="none" stroke="#000000" cx="1211.2486" cy="-563.6309" rx="30.7808" ry="30.7808"/>
<text text-anchor="middle" x="1211.2486" y="-559.4309" font-family="Times,serif" font-size="14.00" fill="#000000">Pooh</text>
</g>
<!-- Jack&#45;&gt;Pooh -->
<g id="edge15" class="edge">
<title>Jack&#45;&gt;Pooh</title>
<path fill="none" stroke="#000000" d="M379.711,-493.5433C392.165,-512.4737 414.1778,-540.4819 441.7069,-552.6309 508.3331,-582.0342 1019.6073,-569.334 1169.8549,-564.9181"/>
<polygon fill="#000000" stroke="#000000" points="1170.1463,-568.4111 1180.0378,-564.6152 1169.9381,-561.4142 1170.1463,-568.4111"/>
<text text-anchor="middle" x="736.9921" y="-575.8309" font-family="Times,serif" font-size="14.00" fill="#000000">such precious. much floof. abso &#45; FUUUUUUUUUCK</text>
</g>
<!-- Tom -->
<g id="node6" class="node">
<title>Tom</title>
<ellipse fill="none" stroke="#000000" cx="1211.2486" cy="-485.6309" rx="29.0548" ry="29.0548"/>
<text text-anchor="middle" x="1211.2486" y="-481.4309" font-family="Times,serif" font-size="14.00" fill="#000000">Tom</text>
</g>
<!-- Jack&#45;&gt;Tom -->
<g id="edge16" class="edge">
<title>Jack&#45;&gt;Tom</title>
<path fill="none" stroke="#000000" d="M407.4349,-475.1394C548.1507,-476.9761 1029.295,-483.2561 1171.414,-485.111"/>
<polygon fill="#000000" stroke="#000000" points="1171.7743,-488.6159 1181.8192,-485.2468 1171.8658,-481.6165 1171.7743,-488.6159"/>
<text text-anchor="middle" x="736.9921" y="-487.8309" font-family="Times,serif" font-size="14.00" fill="#000000">thank u 4 being normal despite doing the same degree</text>
</g>
<!-- unintelligible_screams_0xdeadb00b -->
<g id="node7" class="node">
<title>unintelligible_screams_0xdeadb00b</title>
<ellipse fill="none" stroke="#000000" cx="1924.5805" cy="-399.6309" rx="150.4888" ry="150.4888"/>
<text text-anchor="middle" x="1924.5805" y="-395.4309" font-family="Times,serif" font-size="14.00" fill="#000000">unintelligible_screams_0xdeadb00b</text>
</g>
<!-- Jack&#45;&gt;unintelligible_screams_0xdeadb00b -->
<g id="edge19" class="edge">
<title>Jack&#45;&gt;unintelligible_screams_0xdeadb00b</title>
<path fill="none" stroke="#000000" d="M390.7509,-459.2445C404.7082,-450.5239 423.4563,-440.4238 441.7069,-435.6309 473.2926,-427.3361 1386.3258,-409.5753 1763.7297,-402.5643"/>
<polygon fill="#000000" stroke="#000000" points="1763.9825,-406.0603 1773.9158,-402.3753 1763.8526,-399.0615 1763.9825,-406.0603"/>
<text text-anchor="middle" x="1211.2486" y="-421.8309" font-family="Times,serif" font-size="14.00" fill="#000000">oh god fuck why are you like this and when will you stop</text>
</g>
<!-- Graham_unfortunately -->
<g id="node8" class="node">
<title>Graham_unfortunately</title>
<ellipse fill="none" stroke="#000000" cx="1211.2486" cy="-233.6309" rx="98.9801" ry="98.9801"/>
<text text-anchor="middle" x="1211.2486" y="-229.4309" font-family="Times,serif" font-size="14.00" fill="#000000">Graham_unfortunately</text>
</g>
<!-- Jack&#45;&gt;Graham_unfortunately -->
<g id="edge17" class="edge">
<title>Jack&#45;&gt;Graham_unfortunately</title>
<path fill="none" stroke="#000000" d="M374.2395,-442.5886C385.0905,-386.236 410.3118,-273.1311 441.7069,-249.8309 637.9931,-104.1555 946.6678,-158.3885 1106.9056,-201.2236"/>
<polygon fill="#000000" stroke="#000000" points="1106.2055,-204.66 1116.7728,-203.8972 1108.0362,-197.9036 1106.2055,-204.66"/>
<text text-anchor="middle" x="736.9921" y="-254.8309" font-family="Times,serif" font-size="14.00" fill="#000000">an evening of graph lectures! what could possibly go wrong?!</text>
</g>
<!-- Graham_again_somehow -->
<g id="node9" class="node">
<title>Graham_again_somehow</title>
<ellipse fill="none" stroke="#000000" cx="2465.3696" cy="-129.6309" rx="109.9382" ry="109.9382"/>
<text text-anchor="middle" x="2465.3696" y="-125.4309" font-family="Times,serif" font-size="14.00" fill="#000000">Graham_again_somehow</text>
</g>
<!-- Jack&#45;&gt;Graham_again_somehow -->
<g id="edge18" class="edge">
<title>Jack&#45;&gt;Graham_again_somehow</title>
<path fill="none" stroke="#000000" d="M370.6938,-445.2474C376.8124,-372.8991 396.5608,-189.2936 441.7069,-151.6309 514.9684,-90.5135 1921.0973,-117.2799 2345.2593,-126.7874"/>
<polygon fill="#000000" stroke="#000000" points="2345.3227,-130.2896 2355.3989,-127.0156 2345.4802,-123.2914 2345.3227,-130.2896"/>
<text text-anchor="middle" x="1573.153" y="-120.8309" font-family="Times,serif" font-size="14.00" fill="#000000">...i deserve this. i chose this.</text>
</g>
<!-- Agathe&#45;&gt;Jack -->
<g id="edge2" class="edge">
<title>Agathe&#45;&gt;Jack</title>
<path fill="none" stroke="#000000" d="M1173.5477,-729.0134C1137.5703,-719.3648 1081.6859,-705.6311 1032.2773,-698.8309 967.1918,-689.8732 494.7751,-708.3626 441.7069,-669.6309 416.1708,-650.9935 391.3566,-566.8532 378.19,-515.3786"/>
<polygon fill="#000000" stroke="#000000" points="381.5507,-514.3912 375.7152,-505.5483 374.7626,-516.1002 381.5507,-514.3912"/>
<text text-anchor="middle" x="736.9921" y="-702.8309" font-family="Times,serif" font-size="14.00" fill="#000000">is someone cutting octonions? ah non, c’est rien, je suis juste en train de pleurer.</text>
</g>
<!-- Detlef&#45;&gt;Jack -->
<g id="edge3" class="edge">
<title>Detlef&#45;&gt;Jack</title>
<path fill="none" stroke="#000000" d="M1176.8053,-640.067C1140.915,-632.5261 1082.9491,-621.3021 1032.2773,-615.8309 966.9873,-608.7814 498.456,-625.6769 441.7069,-592.6309 411.1408,-574.8317 391.5585,-538.6817 380.409,-511.0583"/>
<polygon fill="#000000" stroke="#000000" points="383.6633,-509.7693 376.8128,-501.6872 377.128,-512.2773 383.6633,-509.7693"/>
<text text-anchor="middle" x="736.9921" y="-620.8309" font-family="Times,serif" font-size="14.00" fill="#000000">it&#39;s nice that you&#39;re indulging in some extracurricular activities but I DO have a gp2 to finish you know...</text>
</g>
<!-- Pooh&#45;&gt;Jack -->
<g id="edge4" class="edge">
<title>Pooh&#45;&gt;Jack</title>
<path fill="none" stroke="#000000" d="M1180.6527,-557.9107C1145.1166,-551.4924 1084.6645,-541.2693 1032.2773,-535.8309 770.8405,-508.6908 698.1678,-562.195 441.7069,-504.6309 428.3789,-501.6394 414.3579,-496.4466 402.1925,-491.2136"/>
<polygon fill="#000000" stroke="#000000" points="403.4402,-487.9375 392.8826,-487.0495 400.582,-494.3275 403.4402,-487.9375"/>
<text text-anchor="middle" x="736.9921" y="-540.8309" font-family="Times,serif" font-size="14.00" fill="#000000">&lt;immediately claws out eyeballs&gt;</text>
</g>
<!-- Tom&#45;&gt;Jack -->
<g id="edge6" class="edge">
<title>Tom&#45;&gt;Jack</title>
<path fill="none" stroke="#000000" d="M1182.6042,-479.3601C1147.4169,-472.0057 1085.8008,-460.2565 1032.2773,-455.8309 770.6943,-434.2021 702.1135,-422.938 441.7069,-455.8309 429.5198,-457.3703 416.4565,-460.2967 404.7864,-463.3902"/>
<polygon fill="#000000" stroke="#000000" points="403.6463,-460.0742 394.9466,-466.1211 405.5184,-466.8193 403.6463,-460.0742"/>
<text text-anchor="middle" x="736.9921" y="-460.8309" font-family="Times,serif" font-size="14.00" fill="#000000">I deserve better than this. I could have paired up with anyone else for ICAR.</text>
</g>
<!-- Tom&#45;&gt;unintelligible_screams_0xdeadb00b -->
<g id="edge5" class="edge">
<title>Tom&#45;&gt;unintelligible_screams_0xdeadb00b</title>
<path fill="none" stroke="#000000" d="M1240.6325,-484.167C1322.59,-479.8188 1560.526,-465.3876 1756.0861,-435.6309 1759.7781,-435.0692 1763.5106,-434.4766 1767.2711,-433.8575"/>
<polygon fill="#000000" stroke="#000000" points="1768.0075,-437.2827 1777.2815,-432.1599 1766.8371,-430.3812 1768.0075,-437.2827"/>
<text text-anchor="middle" x="1573.153" y="-478.8309" font-family="Times,serif" font-size="14.00" fill="#000000">...actually never mind</text>
</g>
<!-- unintelligible_screams_0xdeadb00b&#45;&gt;Jack -->
<g id="edge11" class="edge">
<title>unintelligible_screams_0xdeadb00b&#45;&gt;Jack</title>
<path fill="none" stroke="#000000" d="M1773.9816,-393.8146C1662.9438,-389.8271 1508.1996,-384.8984 1372.2199,-382.8309 1165.3897,-379.6863 632.9602,-328.8223 441.7069,-407.6309 427.9853,-413.2851 415.2079,-422.7181 404.2924,-432.7474"/>
<polygon fill="#000000" stroke="#000000" points="401.8064,-430.2825 397.0443,-439.7468 406.669,-435.3179 401.8064,-430.2825"/>
<text text-anchor="middle" x="1211.2486" y="-387.8309" font-family="Times,serif" font-size="14.00" fill="#000000">never, son</text>
</g>
<!-- unintelligible_screams_0xdeadb00b&#45;&gt;Graham_again_somehow -->
<g id="edge10" class="edge">
<title>unintelligible_screams_0xdeadb00b&#45;&gt;Graham_again_somehow</title>
<path fill="none" stroke="#000000" d="M2062.6414,-339.5184C2143.7669,-303.1131 2247.7212,-254.577 2337.6507,-206.6309 2345.9595,-202.2011 2354.4852,-197.4759 2362.9983,-192.6287"/>
<polygon fill="#000000" stroke="#000000" points="2364.928,-195.5566 2371.8557,-187.5405 2361.4412,-189.4868 2364.928,-195.5566"/>
<text text-anchor="middle" x="2215.3628" y="-329.8309" font-family="Times,serif" font-size="14.00" fill="#000000">i would kill u if not for the laws of this land</text>
</g>
<!-- Graham_unfortunately&#45;&gt;Jack -->
<g id="edge8" class="edge">
<title>Graham_unfortunately&#45;&gt;Jack</title>
<path fill="none" stroke="#000000" d="M1114.4796,-255.3054C1087.9225,-260.7973 1059.0648,-266.3469 1032.2773,-270.6309 901.85,-291.4897 550.9963,-263.654 441.7069,-337.8309 409.8279,-359.4679 390.7124,-399.6268 380.0491,-430.8587"/>
<polygon fill="#000000" stroke="#000000" points="376.6293,-430.0586 376.8785,-440.6505 383.2889,-432.215 376.6293,-430.0586"/>
<text text-anchor="middle" x="736.9921" y="-342.8309" font-family="Times,serif" font-size="14.00" fill="#000000">gbkshakegooseshitemotherfukerdropkickbooooooitaxevasiongraphgrammar</text>
</g>
<!-- Graham_unfortunately&#45;&gt;Graham_again_somehow -->
<g id="edge7" class="edge">
<title>Graham_unfortunately&#45;&gt;Graham_again_somehow</title>
<path fill="none" stroke="#000000" d="M1309.919,-225.4485C1537.6397,-206.5644 2099.2153,-159.9949 2345.8951,-139.5386"/>
<polygon fill="#000000" stroke="#000000" points="2346.2934,-143.0176 2355.9699,-138.7031 2345.7148,-136.0416 2346.2934,-143.0176"/>
<text text-anchor="middle" x="1924.5805" y="-191.8309" font-family="Times,serif" font-size="14.00" fill="#000000">mmmm, mirchiz...</text>
</g>
<!-- Graham_again_somehow&#45;&gt;Jack -->
<g id="edge9" class="edge">
<title>Graham_again_somehow&#45;&gt;Jack</title>
<path fill="none" stroke="#000000" d="M2360.2338,-97.0407C2352.6374,-95.3441 2345.0548,-93.8433 2337.6507,-92.6309 2082.3425,-50.8271 2014.7354,-73.3433 1756.0861,-67.8309 1464.0162,-61.6063 664.4347,96.4085 441.7069,-92.6309 389.8847,-136.6149 374.2811,-347.6552 369.9795,-435.808"/>
<polygon fill="#000000" stroke="#000000" points="366.4772,-435.778 369.5093,-445.9297 373.4697,-436.1029 366.4772,-435.778"/>
<text text-anchor="middle" x="1573.153" y="-72.8309" font-family="Times,serif" font-size="14.00" fill="#000000">pls turn to page 9928424 of my invoice for your share of the bills</text>
</g>
</g>
</svg>
